<svg width="32" height="32" viewBox="0 0 32 32" fill="none" xmlns="http://www.w3.org/2000/svg">
<path fill-rule="evenodd" clip-rule="evenodd" d="M3.19922 7.60039C3.19922 6.93765 3.73648 6.40039 4.39922 6.40039H27.5992C28.262 6.40039 28.7992 6.93765 28.7992 7.60039C28.7992 8.26313 28.262 8.80039 27.5992 8.80039H4.39922C3.73648 8.80039 3.19922 8.26313 3.19922 7.60039ZM3.19922 24.4004C3.19922 23.7376 3.73648 23.2004 4.39922 23.2004H16.3992C17.062 23.2004 17.5992 23.7376 17.5992 24.4004C17.5992 25.0631 17.062 25.6004 16.3992 25.6004H4.39922C3.73648 25.6004 3.19922 25.0631 3.19922 24.4004Z" fill="#0F172A"/>
<path fill-rule="evenodd" clip-rule="evenodd" d="M3.19922 16.0008C3.19922 15.338 3.73648 14.8008 4.39922 14.8008H27.5992C28.262 14.8008 28.7992 15.338 28.7992 16.0008C28.7992 16.6635 28.262 17.2008 27.5992 17.2008H4.39922C3.73648 17.2008 3.19922 16.6635 3.19922 16.0008Z" fill="#0F172A"/>
</svg>
