<svg width="32" height="32" viewBox="0 0 32 32" fill="none" xmlns="http://www.w3.org/2000/svg">
<path d="M3 4H4.84758C5.52716 4 6.12183 4.45687 6.29694 5.1135L6.80786 7.02946M10 19C7.79086 19 6 20.7909 6 23H27M10 19H24.9577C26.4525 15.9325 27.7569 12.7551 28.8556 9.48334C22.5067 7.86194 15.854 7 9 7C8.26694 7 7.53619 7.00986 6.80786 7.02946M10 19L6.80786 7.02946M8 27C8 27.5523 7.55228 28 7 28C6.44772 28 6 27.5523 6 27C6 26.4477 6.44772 26 7 26C7.55228 26 8 26.4477 8 27ZM25 27C25 27.5523 24.5523 28 24 28C23.4477 28 23 27.5523 23 27C23 26.4477 23.4477 26 24 26C24.5523 26 25 26.4477 25 27Z" stroke="#60269E" stroke-width="1.5" stroke-linecap="round" stroke-linejoin="round"/>
</svg>
