<svg width="17" height="16" viewBox="0 0 17 16" fill="none" xmlns="http://www.w3.org/2000/svg">
<path fill-rule="evenodd" clip-rule="evenodd" d="M6 2.5L13.5 2.5C13.6326 2.5 13.7598 2.55268 13.8536 2.64645C13.9473 2.74021 14 2.86739 14 3V10.5C14 10.7761 13.7761 11 13.5 11C13.2239 11 13 10.7761 13 10.5V4.20711L3.85355 13.3536C3.65829 13.5488 3.34171 13.5488 3.14645 13.3536C2.95118 13.1583 2.95118 12.8417 3.14645 12.6464L12.2929 3.5L6 3.5C5.72386 3.5 5.5 3.27614 5.5 3C5.5 2.72386 5.72386 2.5 6 2.5Z" fill="#171717"/>
</svg>
