<svg width="23" height="20" viewBox="0 0 23 20" fill="none" xmlns="http://www.w3.org/2000/svg">
<path d="M8 3C8.82843 3 9.5 3.67157 9.5 4.5C9.5 5.32843 8.82843 6 8 6C7.17157 6 6.5 5.32843 6.5 4.5C6.5 3.67157 7.17157 3 8 3Z" fill="#A3A3A3"/>
<path d="M8 8.5C8.82843 8.5 9.5 9.17157 9.5 10C9.5 10.8284 8.82843 11.5 8 11.5C7.17157 11.5 6.5 10.8284 6.5 10C6.5 9.17157 7.17157 8.5 8 8.5Z" fill="#A3A3A3"/>
<path d="M9.5 15.5C9.5 14.6716 8.82843 14 8 14C7.17157 14 6.5 14.6716 6.5 15.5C6.5 16.3284 7.17157 17 8 17C8.82843 17 9.5 16.3284 9.5 15.5Z" fill="#A3A3A3"/>
<path d="M13 3C13.8284 3 14.5 3.67157 14.5 4.5C14.5 5.32843 13.8284 6 13 6C12.1716 6 11.5 5.32843 11.5 4.5C11.5 3.67157 12.1716 3 13 3Z" fill="#A3A3A3"/>
<path d="M13 8.5C13.8284 8.5 14.5 9.17157 14.5 10C14.5 10.8284 13.8284 11.5 13 11.5C12.1716 11.5 11.5 10.8284 11.5 10C11.5 9.17157 12.1716 8.5 13 8.5Z" fill="#A3A3A3"/>
<path d="M14.5 15.5C14.5 14.6716 13.8284 14 13 14C12.1716 14 11.5 14.6716 11.5 15.5C11.5 16.3284 12.1716 17 13 17C13.8284 17 14.5 16.3284 14.5 15.5Z" fill="#A3A3A3"/>
</svg>
