<svg width="25" height="20" viewBox="0 0 25 20" fill="none" xmlns="http://www.w3.org/2000/svg">
<path d="M10 3C10.8284 3 11.5 3.67157 11.5 4.5C11.5 5.32843 10.8284 6 10 6C9.17157 6 8.5 5.32843 8.5 4.5C8.5 3.67157 9.17157 3 10 3Z" fill="#A3A3A3"/>
<path d="M10 8.5C10.8284 8.5 11.5 9.17157 11.5 10C11.5 10.8284 10.8284 11.5 10 11.5C9.17157 11.5 8.5 10.8284 8.5 10C8.5 9.17157 9.17157 8.5 10 8.5Z" fill="#A3A3A3"/>
<path d="M11.5 15.5C11.5 14.6716 10.8284 14 10 14C9.17157 14 8.5 14.6716 8.5 15.5C8.5 16.3284 9.17157 17 10 17C10.8284 17 11.5 16.3284 11.5 15.5Z" fill="#A3A3A3"/>
<path d="M15 3C15.8284 3 16.5 3.67157 16.5 4.5C16.5 5.32843 15.8284 6 15 6C14.1716 6 13.5 5.32843 13.5 4.5C13.5 3.67157 14.1716 3 15 3Z" fill="#A3A3A3"/>
<path d="M15 8.5C15.8284 8.5 16.5 9.17157 16.5 10C16.5 10.8284 15.8284 11.5 15 11.5C14.1716 11.5 13.5 10.8284 13.5 10C13.5 9.17157 14.1716 8.5 15 8.5Z" fill="#A3A3A3"/>
<path d="M16.5 15.5C16.5 14.6716 15.8284 14 15 14C14.1716 14 13.5 14.6716 13.5 15.5C13.5 16.3284 14.1716 17 15 17C15.8284 17 16.5 16.3284 16.5 15.5Z" fill="#A3A3A3"/>
</svg>
