<svg width="21" height="20" viewBox="0 0 21 20" fill="none" xmlns="http://www.w3.org/2000/svg">
<path d="M14.25 5V5.625M14.25 8.125V8.75M14.25 11.25V11.875M14.25 14.375V15M6.75 10.625H11.125M6.75 12.5H9.25M3.3125 4.375C2.79473 4.375 2.375 4.79473 2.375 5.3125V7.83446C3.12225 8.26672 3.625 9.07465 3.625 10C3.625 10.9254 3.12225 11.7333 2.375 12.1655V14.6875C2.375 15.2053 2.79473 15.625 3.3125 15.625H17.6875C18.2053 15.625 18.625 15.2053 18.625 14.6875V12.1655C17.8777 11.7333 17.375 10.9254 17.375 10C17.375 9.07465 17.8777 8.26672 18.625 7.83446V5.3125C18.625 4.79473 18.2053 4.375 17.6875 4.375H3.3125Z" stroke="#60269E" stroke-width="1.5" stroke-linecap="round" stroke-linejoin="round"/>
</svg>
