<svg width="18" height="18" viewBox="0 0 18 18" fill="none" xmlns="http://www.w3.org/2000/svg">
<path d="M6.1875 5.625V4.58117C6.1875 3.72993 6.82124 3.00761 7.66956 2.93721C7.94953 2.91397 8.2304 2.89394 8.51214 2.87714M11.8125 13.5H13.5C14.432 13.5 15.1875 12.7445 15.1875 11.8125V4.58116C15.1875 3.72993 14.5538 3.00761 13.7054 2.93721C13.4255 2.91397 13.1446 2.89394 12.8629 2.87714M11.8125 14.0625V12.6562C11.8125 11.2583 10.6792 10.125 9.28125 10.125H8.15625C7.69026 10.125 7.3125 9.74724 7.3125 9.28125V8.15625C7.3125 6.75828 6.17922 5.625 4.78125 5.625H3.9375M12.8629 2.87714C12.6504 2.18818 12.0087 1.6875 11.25 1.6875H10.125C9.36631 1.6875 8.72457 2.18818 8.51214 2.87714M12.8629 2.87714C12.9114 3.03451 12.9375 3.20171 12.9375 3.375V3.9375H8.4375V3.375C8.4375 3.20171 8.46362 3.03451 8.51214 2.87714M5.0625 5.625H3.65625C3.19026 5.625 2.8125 6.00276 2.8125 6.46875V15.4688C2.8125 15.9347 3.19026 16.3125 3.65625 16.3125H10.9688C11.4347 16.3125 11.8125 15.9347 11.8125 15.4688V12.375C11.8125 8.64708 8.79042 5.625 5.0625 5.625Z" stroke="#171717" stroke-width="1.5" stroke-linecap="round" stroke-linejoin="round"/>
</svg>
