<svg width="20" height="20" viewBox="0 0 20 20" fill="none" xmlns="http://www.w3.org/2000/svg">
<path fill-rule="evenodd" clip-rule="evenodd" d="M10.8081 3.30806C11.0521 3.06398 11.4479 3.06398 11.6919 3.30806L17.9419 9.55806C18.0592 9.67527 18.125 9.83424 18.125 10C18.125 10.1658 18.0592 10.3247 17.9419 10.4419L11.6919 16.6919C11.4479 16.936 11.0521 16.936 10.8081 16.6919C10.564 16.4479 10.564 16.0521 10.8081 15.8081L15.9911 10.625H2.5C2.15482 10.625 1.875 10.3452 1.875 10C1.875 9.65482 2.15482 9.375 2.5 9.375H15.9911L10.8081 4.19194C10.564 3.94786 10.564 3.55214 10.8081 3.30806Z" fill="#737373"/>
</svg>
