<svg width="24" height="24" viewBox="0 0 24 24" fill="none" xmlns="http://www.w3.org/2000/svg">
<path d="M11.9992 3.59961C12.9933 3.59961 13.7992 4.4055 13.7992 5.39961C13.7992 6.39372 12.9933 7.19961 11.9992 7.19961C11.0051 7.19961 10.1992 6.39372 10.1992 5.39961C10.1992 4.4055 11.0051 3.59961 11.9992 3.59961Z" fill="#0F172A"/>
<path d="M11.9992 10.1996C12.9933 10.1996 13.7992 11.0055 13.7992 11.9996C13.7992 12.9937 12.9933 13.7996 11.9992 13.7996C11.0051 13.7996 10.1992 12.9937 10.1992 11.9996C10.1992 11.0055 11.0051 10.1996 11.9992 10.1996Z" fill="#0F172A"/>
<path d="M13.7992 18.5996C13.7992 17.6055 12.9933 16.7996 11.9992 16.7996C11.0051 16.7996 10.1992 17.6055 10.1992 18.5996C10.1992 19.5937 11.0051 20.3996 11.9992 20.3996C12.9933 20.3996 13.7992 19.5937 13.7992 18.5996Z" fill="#0F172A"/>
</svg>
