<svg width="124" height="45" viewBox="0 0 124 45" fill="none" xmlns="http://www.w3.org/2000/svg">
<g clip-path="url(#clip0_1872_13111)">
<path d="M122.869 9.4383C122.766 9.17988 122.612 8.94521 122.415 8.74874C122.218 8.55227 121.983 8.39815 121.725 8.29588C121.29 8.12453 120.809 8.10821 120.364 8.24966C119.918 8.39112 119.535 8.68171 119.279 9.07255C119.022 9.4634 118.908 9.93063 118.956 10.3956C119.004 10.8606 119.21 11.295 119.54 11.6257C119.821 11.9054 120.177 12.0972 120.565 12.1777C120.953 12.2581 121.356 12.2238 121.725 12.0788C121.973 11.9805 122.2 11.8342 122.392 11.6483C122.584 11.4624 122.737 11.2405 122.843 10.9953C122.949 10.75 123.006 10.4863 123.01 10.2192C123.014 9.95203 122.966 9.68668 122.867 9.4383M122.531 10.6619C122.467 10.8749 122.36 11.0721 122.215 11.2405C122.071 11.4096 121.894 11.5477 121.695 11.6464C121.511 11.7373 121.31 11.7919 121.105 11.8073C120.9 11.8235 120.695 11.8014 120.498 11.7423C120.286 11.6773 120.09 11.5693 119.921 11.425C119.751 11.2822 119.613 11.1052 119.515 10.9054C119.424 10.7209 119.369 10.5204 119.353 10.315C119.319 9.88634 119.456 9.46168 119.735 9.13424C119.88 8.96551 120.057 8.82791 120.256 8.72982C120.44 8.63782 120.641 8.58314 120.847 8.56894C121.051 8.5514 121.257 8.57345 121.453 8.63388C121.665 8.69929 121.861 8.80672 122.03 8.94974C122.2 9.09342 122.338 9.27085 122.436 9.47077C122.618 9.84179 122.652 10.2683 122.531 10.6634" fill="#60269E"/>
<path d="M121.795 11.0465L121.383 10.4561C121.383 10.4561 121.383 10.4457 121.383 10.4428C121.503 10.3799 121.598 10.2787 121.654 10.1553C121.71 10.0319 121.723 9.89335 121.691 9.76178C121.659 9.63022 121.583 9.51317 121.477 9.42928C121.371 9.3454 121.239 9.29949 121.104 9.29888H120.286C120.284 9.29868 120.281 9.29903 120.278 9.2999C120.276 9.30077 120.274 9.30215 120.272 9.30396C120.27 9.30576 120.268 9.30794 120.267 9.31037C120.266 9.3128 120.266 9.31542 120.266 9.31807V11.0583C120.266 11.0609 120.266 11.0635 120.267 11.066C120.268 11.0684 120.27 11.0706 120.272 11.0724C120.274 11.0742 120.276 11.0756 120.278 11.0764C120.281 11.0773 120.284 11.0777 120.286 11.0775H120.645C120.65 11.0775 120.655 11.0754 120.659 11.0718C120.662 11.0682 120.664 11.0634 120.664 11.0583V10.5284C120.664 10.5259 120.664 10.5235 120.665 10.5212C120.666 10.5188 120.667 10.5167 120.669 10.5149C120.67 10.5131 120.672 10.5117 120.675 10.5107C120.677 10.5097 120.679 10.5092 120.682 10.5092H120.928C120.931 10.5081 120.934 10.5075 120.936 10.5075C120.939 10.5075 120.942 10.5081 120.945 10.5092L121.328 11.0612C121.33 11.0639 121.333 11.066 121.335 11.0676C121.338 11.0691 121.341 11.07 121.345 11.0701H121.787C121.791 11.07 121.794 11.0689 121.797 11.067C121.8 11.0651 121.803 11.0624 121.804 11.0591C121.806 11.0559 121.806 11.0523 121.806 11.0488C121.806 11.0453 121.804 11.0419 121.802 11.0391M121.237 10.0812C121.188 10.1302 121.122 10.1578 121.052 10.1579H120.676V9.64131H121.052C121.122 9.64144 121.188 9.66904 121.237 9.71807C121.286 9.76754 121.313 9.83438 121.313 9.90404C121.313 9.9737 121.286 10.0405 121.237 10.09" fill="#60269E"/>
<path d="M91.9285 22.8225C91.9225 24.2381 92.3232 25.6257 93.0828 26.8202C93.8425 28.0148 94.9292 28.9661 96.2137 29.561C97.4983 30.1559 98.9266 30.3695 100.329 30.1763C101.731 29.9831 103.049 29.3913 104.125 28.4711L104.148 28.452L104.522 28.1346L106.486 26.4697C106.516 26.4445 106.552 26.4285 106.591 26.4236C106.629 26.4186 106.668 26.425 106.703 26.4418C106.738 26.4587 106.768 26.4854 106.788 26.5186C106.808 26.5519 106.818 26.5903 106.817 26.6291L106.711 29.6239C106.671 30.7404 106.266 31.8131 105.558 32.6777C104.851 33.5423 103.879 34.1513 102.793 34.4115C101.706 34.6717 100.564 34.5687 99.5419 34.1183C98.5195 33.6679 97.6728 32.8949 97.1314 31.9176C96.9668 31.622 96.8328 31.3105 96.7314 30.9877C96.6852 30.8422 96.5854 30.7196 96.4521 30.6451C96.3189 30.5705 96.1623 30.5495 96.0141 30.5862L91.3175 31.7331C91.239 31.7524 91.1653 31.7873 91.1006 31.8358C91.036 31.8842 90.9817 31.9451 90.9411 32.0149C90.9005 32.0847 90.8743 32.162 90.8641 32.2422C90.854 32.3223 90.8601 32.4037 90.882 32.4814C90.9804 32.8327 91.097 33.1771 91.2318 33.5146C91.8159 34.9969 92.711 36.3367 93.8568 37.4438C95.0025 38.5509 96.3723 39.3994 97.8738 39.9322C99.8089 40.6193 101.881 40.8283 103.915 40.5416C105.948 40.2549 107.882 39.4808 109.552 38.2855C111.222 37.0901 112.578 35.5088 113.504 33.6763C114.431 31.8439 114.901 29.8145 114.874 27.7612V10.7873C114.874 10.7082 114.859 10.6299 114.829 10.5567C114.799 10.4836 114.755 10.4171 114.699 10.361C114.643 10.305 114.577 10.2605 114.504 10.23C114.431 10.1996 114.353 10.1838 114.274 10.1836H107.314C107.155 10.184 107.002 10.2476 106.889 10.3605C106.777 10.4734 106.714 10.6264 106.714 10.7858V21.3421C106.713 21.4545 106.681 21.5646 106.622 21.66C106.563 21.7554 106.478 21.8324 106.377 21.8823L104.615 22.7458L104.159 22.9746C103.729 23.1849 103.252 23.2823 102.774 23.2578C102.296 23.2332 101.832 23.0874 101.426 22.8341C101.019 22.5808 100.684 22.2283 100.452 21.8098C100.219 21.3913 100.097 20.9205 100.097 20.4418V10.7873C100.097 10.7076 100.081 10.6286 100.051 10.555C100.02 10.4814 99.9753 10.4146 99.9187 10.3584C99.8621 10.3023 99.795 10.2579 99.7211 10.2279C99.6473 10.1979 99.5682 10.1828 99.4885 10.1836H92.5307C92.371 10.1836 92.2178 10.2471 92.1049 10.36C91.992 10.4729 91.9285 10.6261 91.9285 10.7858V22.8211V22.8225Z" fill="#60269E"/>
<path d="M88.7997 2.16602H81.8404C81.6809 2.16641 81.5281 2.23003 81.4155 2.34292C81.3029 2.45581 81.2397 2.60876 81.2397 2.76822V11.9194C81.2391 11.9578 81.2276 11.9952 81.2064 12.0272C81.1852 12.0592 81.1553 12.0845 81.1202 12.1001C81.0851 12.1156 81.0462 12.1207 81.0083 12.1149C80.9703 12.109 80.9349 12.0924 80.9061 12.067L80.5755 11.7718C80.4043 11.6212 80.2271 11.478 80.0441 11.3422C76.8117 8.94672 72.8664 8.94672 69.6339 11.3422C68.6167 12.1145 67.7636 13.082 67.1248 14.188C66.4829 15.2913 66.0121 16.4857 65.7285 17.7303C65.7226 17.7514 65.71 17.7701 65.6925 17.7833C65.675 17.7966 65.6537 17.8037 65.6318 17.8037C65.6099 17.8037 65.5886 17.7966 65.5711 17.7833C65.5536 17.7701 65.541 17.7514 65.5351 17.7303C64.7006 15.0204 62.8564 12.7349 60.3839 11.3467C58.2865 10.1682 55.9212 9.54923 53.5154 9.54923C51.1096 9.54923 48.7443 10.1682 46.6469 11.3467C44.1083 12.7706 42.2343 15.139 41.4322 17.937C41.4259 17.9575 41.4132 17.9755 41.3959 17.9882C41.3786 18.001 41.3577 18.0079 41.3363 18.0079C41.3148 18.0079 41.2939 18.001 41.2766 17.9882C41.2594 17.9755 41.2466 17.9575 41.2403 17.937C40.4383 15.1407 38.5662 12.7733 36.0301 11.3482C33.9323 10.1692 31.5664 9.54987 29.1601 9.54987C26.7537 9.54987 24.3878 10.1692 22.2901 11.3482C20.5813 12.3084 19.1586 13.7059 18.1679 15.3972C17.1772 17.0886 16.6542 19.0129 16.6523 20.9731C16.6505 22.9332 17.1701 24.8586 18.1576 26.5517C19.1452 28.2449 20.5653 29.6449 22.2724 30.6084L22.3093 30.629C24.4054 31.8027 26.7679 32.4181 29.1703 32.4163C31.5726 32.4145 33.9342 31.7955 36.0286 30.6187C38.5652 29.1938 40.4378 26.8264 41.2403 24.0299C41.2457 24.0085 41.258 23.9895 41.2754 23.9759C41.2928 23.9623 41.3142 23.955 41.3363 23.955C41.3583 23.955 41.3797 23.9623 41.3971 23.9759C41.4145 23.9895 41.4269 24.0085 41.4322 24.0299C42.2341 26.8267 44.1068 29.1944 46.6439 30.6187C48.7413 31.7971 51.1067 32.4161 53.5124 32.4161C55.9182 32.4161 58.2836 31.7971 60.381 30.6187C62.8558 29.2287 64.7008 26.9397 65.5336 24.2262C65.5403 24.2052 65.5536 24.1871 65.5716 24.1744C65.5896 24.1618 65.6112 24.1554 65.6331 24.1563C65.6551 24.1571 65.6761 24.1651 65.6931 24.1791C65.7101 24.193 65.722 24.2122 65.727 24.2336C66.0102 25.4783 66.481 26.6727 67.1233 27.7759C67.7608 28.8833 68.614 29.8515 69.6325 30.6231C72.8649 33.0201 76.8102 33.0201 80.0426 30.6231C80.2257 30.4873 80.4028 30.3442 80.574 30.1936C80.6847 30.0977 80.7954 30.0017 80.9046 29.8984C80.9334 29.873 80.9689 29.8564 81.0068 29.8505C81.0448 29.8446 81.0836 29.8498 81.1187 29.8653C81.1538 29.8808 81.1837 29.9061 81.2049 29.9382C81.2261 29.9702 81.2376 30.0076 81.2382 30.046V31.1737C81.2382 31.3331 81.3014 31.4861 81.414 31.599C81.5267 31.7119 81.6795 31.7755 81.8389 31.7759H88.7982C88.9577 31.7755 89.1105 31.7119 89.2231 31.599C89.3357 31.4861 89.3989 31.3331 89.3989 31.1737V2.76822C89.3989 2.60902 89.3359 2.45629 89.2236 2.34344C89.1113 2.23059 88.9589 2.1668 88.7997 2.16602V2.16602ZM33.3024 22.7708C33.2537 22.9184 33.1976 23.066 33.1357 23.2136C33.0705 23.3596 32.9976 23.502 32.9172 23.6402C32.8358 23.7808 32.7466 23.9168 32.6501 24.0476C32.3559 24.4439 31.9983 24.789 31.5918 25.069C31.4386 25.1737 31.2794 25.2693 31.115 25.3553C30.9674 25.4276 30.8198 25.494 30.6722 25.5516C30.5274 25.6087 30.3796 25.6579 30.2294 25.6992C29.5299 25.8911 28.7917 25.8911 28.0922 25.6992C27.942 25.6582 27.7942 25.6089 27.6494 25.5516C27.3266 25.427 27.0194 25.2651 26.7343 25.069C26.5994 24.9773 26.4693 24.8788 26.3446 24.7738C26.0964 24.5586 25.8722 24.317 25.676 24.0535C25.5795 23.9227 25.4903 23.7867 25.4088 23.6461C25.3289 23.5079 25.2565 23.3655 25.1919 23.2195C25.1281 23.0752 25.0724 22.9273 25.0251 22.7768C24.6516 21.6139 24.6516 20.3633 25.0251 19.2004C25.0722 19.0498 25.1279 18.9019 25.1919 18.7576C25.3222 18.4627 25.4845 18.1831 25.676 17.9237C25.7734 17.7918 25.8784 17.6656 25.9904 17.5458C26.1022 17.4254 26.2205 17.3111 26.3446 17.2034C26.4691 17.098 26.5991 16.9995 26.7343 16.9082C27.0194 16.7121 27.3266 16.5501 27.6494 16.4256C27.7942 16.3683 27.942 16.319 28.0922 16.278C28.7917 16.0861 29.5299 16.0861 30.2294 16.278C30.3796 16.3192 30.5274 16.3685 30.6722 16.4256C30.8198 16.4831 30.9674 16.5495 31.115 16.6219C31.2794 16.7079 31.4386 16.8035 31.5918 16.9082C31.7272 16.9991 31.8573 17.0977 31.9814 17.2034C32.1056 17.3111 32.2238 17.4254 32.3357 17.5458C32.4476 17.6656 32.5526 17.7918 32.6501 17.9237C32.8413 18.1835 33.0041 18.4631 33.1357 18.7576C33.1976 18.9052 33.2537 19.0528 33.3024 19.2004C33.6727 20.3618 33.6722 21.6097 33.301 22.7708H33.3024ZM57.6563 22.7708C57.609 22.9214 57.5533 23.0693 57.4895 23.2136C57.425 23.3599 57.352 23.5023 57.2711 23.6402C57.1896 23.7808 57.1004 23.9168 57.0039 24.0476C56.9065 24.1791 56.8021 24.3052 56.691 24.4254C56.4666 24.6663 56.2166 24.8821 55.9456 25.069C55.7929 25.1743 55.6336 25.2699 55.4689 25.3553C55.3248 25.4284 55.177 25.4939 55.0261 25.5516C54.8812 25.6087 54.7334 25.6579 54.5833 25.6992C53.8843 25.8911 53.1465 25.8911 52.4475 25.6992C52.2974 25.6579 52.1496 25.6087 52.0047 25.5516C51.8538 25.4939 51.706 25.4284 51.5619 25.3553C51.3972 25.2699 51.2379 25.1743 51.0852 25.069C50.9498 24.9781 50.8197 24.8795 50.6955 24.7738C50.5702 24.6669 50.4514 24.5525 50.3398 24.4313C50.2287 24.3111 50.1243 24.185 50.0269 24.0535C49.8357 23.7937 49.6729 23.5141 49.5413 23.2195C49.4775 23.0752 49.4218 22.9273 49.3745 22.7768C49.0025 21.6137 49.0025 20.3635 49.3745 19.2004C49.4216 19.0498 49.4773 18.9019 49.5413 18.7576C49.6729 18.4631 49.8357 18.1835 50.0269 17.9237C50.1243 17.7922 50.2287 17.666 50.3398 17.5458C50.4518 17.425 50.5705 17.3107 50.6955 17.2034C50.8197 17.0977 50.9498 16.9991 51.0852 16.9082C51.2379 16.8029 51.3972 16.7072 51.5619 16.6219C51.706 16.5488 51.8538 16.4832 52.0047 16.4256C52.1496 16.3685 52.2974 16.3192 52.4475 16.278C53.1465 16.0861 53.8843 16.0861 54.5833 16.278C54.7334 16.3192 54.8812 16.3685 55.0261 16.4256C55.177 16.4832 55.3248 16.5488 55.4689 16.6219C55.6336 16.7072 55.7929 16.8029 55.9456 16.9082C56.081 16.9991 56.2111 17.0977 56.3353 17.2034C56.4599 17.3111 56.5787 17.4254 56.691 17.5458C56.8021 17.666 56.9065 17.7922 57.0039 17.9237C57.1001 18.0547 57.1893 18.1907 57.2711 18.3311C57.3517 18.4691 57.4247 18.6115 57.4895 18.7576C57.5535 18.9019 57.6092 19.0498 57.6563 19.2004C58.0261 20.362 58.025 21.6099 57.6533 22.7708H57.6563ZM81.2426 24.1479C81.2416 24.204 81.2289 24.2592 81.2052 24.3101C81.1816 24.3609 81.1476 24.4062 81.1053 24.4431L80.7703 24.7383L80.7467 24.759C80.622 24.8641 80.4919 24.9626 80.357 25.0542C80.0719 25.2503 79.7648 25.4123 79.4419 25.5368C79.2971 25.5941 79.1493 25.6434 78.9991 25.6844C78.3001 25.8763 77.5623 25.8763 76.8633 25.6844C76.7132 25.6432 76.5654 25.5939 76.4206 25.5368C76.273 25.4793 76.1254 25.4129 75.9778 25.3405C75.8132 25.2549 75.654 25.1592 75.501 25.0542C75.23 24.8673 74.9801 24.6515 74.7556 24.4107C74.6446 24.2905 74.5401 24.1643 74.4427 24.0328C74.3462 23.9021 74.257 23.7661 74.1756 23.6254C74.0946 23.4876 74.0216 23.3452 73.9571 23.1989C73.8933 23.0545 73.8377 22.9067 73.7903 22.7561C73.4184 21.593 73.4184 20.3428 73.7903 19.1798C73.8375 19.0291 73.8931 18.8813 73.9571 18.737C74.022 18.5908 74.0949 18.4484 74.1756 18.3104C74.2574 18.17 74.3465 18.034 74.4427 17.903C74.5401 17.7715 74.6446 17.6454 74.7556 17.5252C74.868 17.4047 74.9867 17.2904 75.1113 17.1827C75.2355 17.077 75.3656 16.9784 75.501 16.8875C75.6538 16.7822 75.813 16.6866 75.9778 16.6012C76.1218 16.5281 76.2696 16.4626 76.4206 16.4049C76.5654 16.3479 76.7132 16.2986 76.8633 16.2573C77.5623 16.0654 78.3001 16.0654 78.9991 16.2573C79.1493 16.2984 79.2971 16.3476 79.4419 16.4049C79.7648 16.5295 80.0719 16.6915 80.357 16.8875C80.4919 16.9792 80.622 17.0777 80.7467 17.1827C80.7467 17.1827 80.7629 17.196 80.7703 17.2049L81.1053 17.5001C81.1476 17.537 81.1816 17.5823 81.2052 17.6331C81.2289 17.684 81.2416 17.7392 81.2426 17.7953V24.1479Z" fill="#60269E"/>
<path d="M17.5725 1.42441C16.3295 0.711414 14.9565 0.254262 13.5342 0.0798658C12.1119 -0.0945301 10.6691 0.0173542 9.29073 0.408933C7.76604 0.842623 6.42431 1.76156 5.46891 3.02646C4.51352 4.29136 3.99654 5.83325 3.99635 7.41841V10.2597C3.99636 10.2862 3.99106 10.3125 3.98077 10.337C3.97048 10.3615 3.95541 10.3836 3.93643 10.4022C3.91746 10.4207 3.89497 10.4353 3.87028 10.4451C3.84559 10.4548 3.8192 10.4595 3.79266 10.459H1.59049C1.43077 10.459 1.2776 10.5224 1.16466 10.6353C1.05173 10.7483 0.988281 10.9014 0.988281 11.0612L0.988281 15.498C0.988281 15.6577 1.05173 15.8109 1.16466 15.9238C1.2776 16.0367 1.43077 16.1002 1.59049 16.1002H3.79266C3.8459 16.1002 3.89696 16.1213 3.9346 16.159C3.97225 16.1966 3.9934 16.2477 3.9934 16.3009V31.1789C3.99379 31.3384 4.05741 31.4912 4.1703 31.6038C4.28319 31.7164 4.43614 31.7796 4.5956 31.7796H11.5564C11.7158 31.7796 11.8688 31.7164 11.9817 31.6038C12.0946 31.4912 12.1582 31.3384 12.1586 31.1789V16.3068C12.1586 16.2546 12.1789 16.2044 12.2153 16.1669C12.2516 16.1295 12.3012 16.1076 12.3534 16.1061H16.0434C16.2031 16.1061 16.3563 16.0426 16.4692 15.9297C16.5821 15.8168 16.6456 15.6636 16.6456 15.5039V11.0612C16.6456 10.9014 16.5821 10.7483 16.4692 10.6353C16.3563 10.5224 16.2031 10.459 16.0434 10.459H12.3534C12.3271 10.4591 12.301 10.4541 12.2767 10.4442C12.2524 10.4343 12.2302 10.4196 12.2116 10.4011C12.1929 10.3826 12.1781 10.3606 12.168 10.3363C12.1579 10.312 12.1527 10.286 12.1527 10.2597V8.64791C12.1523 8.26951 12.238 7.89597 12.4033 7.55558C12.5686 7.2152 12.8092 6.91689 13.1069 6.68323C13.4045 6.44957 13.7514 6.2867 14.1213 6.20694C14.4912 6.12718 14.8744 6.13262 15.2419 6.22286L16.7017 6.57562C16.7848 6.59564 16.8713 6.59767 16.9553 6.58158C17.0393 6.56549 17.1189 6.53165 17.1887 6.48232C17.2586 6.433 17.3171 6.36933 17.3604 6.29556C17.4037 6.2218 17.4307 6.13965 17.4397 6.0546L17.8692 2.01038C17.882 1.89446 17.8607 1.77732 17.808 1.67326C17.7553 1.56921 17.6735 1.48274 17.5725 1.42441V1.42441Z" fill="#60269E"/>
<path d="M5.20489 42.7658H4.19531V35.6973H5.20489V38.8441C5.47942 38.3644 6.0772 38.0898 6.74435 38.0898C7.04557 38.082 7.34517 38.1363 7.6245 38.2493C7.90382 38.3623 8.15689 38.5316 8.36794 38.7467C8.59132 38.9754 8.76569 39.2473 8.8804 39.5458C8.99511 39.8442 9.04774 40.1629 9.03509 40.4824C9.04644 40.7996 8.99213 41.1156 8.87554 41.4108C8.75896 41.7059 8.58262 41.9738 8.35761 42.1975C8.14718 42.4141 7.89446 42.5851 7.61516 42.6999C7.33585 42.8146 7.03592 42.8707 6.73402 42.8647C6.09639 42.8647 5.47942 42.5798 5.20489 42.1001V42.7658ZM6.61741 41.8802C6.79962 41.8825 6.98039 41.8478 7.14884 41.7783C7.31728 41.7088 7.46989 41.6059 7.59747 41.4758C7.73001 41.3418 7.83393 41.1824 7.90295 41.007C7.97196 40.8317 8.00462 40.6442 7.99894 40.4559C8.0059 40.2721 7.97501 40.0888 7.90818 39.9175C7.84136 39.7462 7.74002 39.5904 7.61046 39.4599C7.48091 39.3294 7.3259 39.2269 7.15507 39.1588C6.98424 39.0907 6.80123 39.0584 6.61741 39.064C6.25383 39.0612 5.90305 39.1981 5.63736 39.4463C5.49607 39.5724 5.38481 39.7285 5.31176 39.9032C5.23872 40.0779 5.20573 40.2667 5.21522 40.4559C5.2055 40.6437 5.23492 40.8316 5.30162 41.0074C5.36831 41.1833 5.47082 41.3435 5.60265 41.4776C5.73449 41.6118 5.89276 41.7172 6.06744 41.787C6.24213 41.8568 6.42941 41.8895 6.61741 41.8831V41.8802Z" fill="#60269E"/>
<path d="M14.2002 38.1875L11.3663 45.0007H10.308L11.2984 42.5505L9.48438 38.1875H10.5633L11.8371 41.3284L13.1212 38.1905L14.2002 38.1875Z" fill="#60269E"/>
<path d="M16.5703 36.9804V36.0137H21.6093V36.9834H19.6197V42.7678H18.5599V36.9804H16.5703Z" fill="#60269E"/>
<path d="M25.5137 38.7457C25.7441 38.9664 25.9254 39.2332 26.0454 39.5288C26.1655 39.8244 26.2217 40.142 26.2103 40.4608C26.2213 40.7835 26.1642 41.1049 26.0426 41.4039C25.9211 41.703 25.7378 41.9731 25.5048 42.1966C25.0441 42.6264 24.4375 42.8653 23.8074 42.8653C23.1774 42.8653 22.5708 42.6264 22.11 42.1966C21.8817 41.9706 21.7028 41.6996 21.5846 41.4008C21.4665 41.102 21.4117 40.7819 21.4237 40.4608C21.4109 40.1428 21.4655 39.8256 21.5837 39.53C21.702 39.2345 21.8813 38.9672 22.11 38.7457C22.5752 38.3249 23.1801 38.0918 23.8074 38.0918C24.4347 38.0918 25.0397 38.3249 25.5048 38.7457H25.5137ZM24.7993 41.4911C24.933 41.3552 25.0375 41.1935 25.1066 41.0159C25.1756 40.8382 25.2077 40.6484 25.2008 40.4579C25.2066 40.274 25.1745 40.0909 25.1064 39.92C25.0384 39.749 24.9359 39.594 24.8054 39.4644C24.6748 39.3348 24.5189 39.2334 24.3475 39.1667C24.1761 39.0999 23.9927 39.0692 23.8089 39.0764C23.6284 39.0722 23.4488 39.1038 23.2806 39.1694C23.1124 39.2351 22.9588 39.3333 22.8288 39.4586C22.6956 39.5878 22.5909 39.7435 22.5215 39.9156C22.4521 40.0877 22.4195 40.2724 22.4259 40.4579C22.4189 40.6485 22.4511 40.8385 22.5204 41.0162C22.5897 41.1939 22.6947 41.3555 22.8288 41.4911C23.0953 41.7424 23.4478 41.8823 23.8141 41.8823C24.1803 41.8823 24.5328 41.7424 24.7993 41.4911V41.4911Z" fill="#60269E"/>
<path d="M30.8783 42.7658V42.1001C30.6038 42.5798 29.9927 42.8647 29.33 42.8647C29.0288 42.8722 28.7293 42.8177 28.45 42.7047C28.1708 42.5918 27.9176 42.4226 27.7064 42.2079C27.4841 41.9805 27.3105 41.7103 27.1961 41.4136C27.0816 41.117 27.0288 40.8001 27.0407 40.4824C27.0407 39.7666 27.2562 39.1983 27.6961 38.757C27.9074 38.5416 28.1603 38.3714 28.4394 38.2567C28.7185 38.142 29.0179 38.0853 29.3196 38.0898C29.9868 38.0898 30.5934 38.3644 30.868 38.8441V35.6973H31.8687V42.7658H30.8783ZM30.4355 39.4522C30.169 39.2043 29.8179 39.0675 29.454 39.0699C29.2704 39.0636 29.0874 39.0954 28.9167 39.1633C28.7461 39.2313 28.5913 39.3339 28.4623 39.4647C28.3333 39.5955 28.2328 39.7517 28.1673 39.9233C28.1017 40.0949 28.0724 40.2783 28.0813 40.4618C28.0729 40.6516 28.1034 40.8412 28.1709 41.0189C28.2384 41.1966 28.3415 41.3586 28.4739 41.495C28.6022 41.6232 28.7552 41.724 28.9237 41.7913C29.0922 41.8585 29.2726 41.8908 29.454 41.8861C29.6414 41.8924 29.8282 41.8598 30.0025 41.7904C30.1767 41.7209 30.3347 41.6161 30.4665 41.4826C30.5982 41.3491 30.7008 41.1897 30.7679 41.0145C30.835 40.8393 30.865 40.6521 30.8562 40.4647C30.8663 40.2755 30.8341 40.0864 30.7618 39.9112C30.6896 39.736 30.5791 39.5792 30.4384 39.4522H30.4355Z" fill="#60269E"/>
<path d="M37.0855 38.7466C37.3154 38.9675 37.4962 39.2345 37.616 39.53C37.7358 39.8255 37.7919 40.143 37.7806 40.4617C37.7917 40.7844 37.7345 41.1057 37.6129 41.4048C37.4914 41.7039 37.3081 41.974 37.0751 42.1975C36.6144 42.6272 36.0078 42.8662 35.3777 42.8662C34.7477 42.8662 34.1411 42.6272 33.6803 42.1975C33.452 41.9715 33.2731 41.7005 33.1549 41.4017C33.0368 41.1029 32.982 40.7828 32.994 40.4617C32.9812 40.1436 33.0358 39.8264 33.154 39.5309C33.2723 39.2353 33.4517 38.9681 33.6803 38.7466C34.1461 38.324 34.7525 38.0898 35.3814 38.0898C36.0104 38.0898 36.6168 38.324 37.0825 38.7466H37.0855ZM36.3696 41.492C36.5033 41.3561 36.6079 41.1944 36.6769 41.0168C36.7459 40.8391 36.778 40.6492 36.7711 40.4588C36.7769 40.2749 36.7448 40.0918 36.6768 39.9209C36.6087 39.7499 36.5062 39.5948 36.3757 39.4652C36.2451 39.3356 36.0892 39.2343 35.9178 39.1675C35.7464 39.1008 35.563 39.0701 35.3792 39.0772C35.1987 39.0731 35.0191 39.1047 34.8509 39.1703C34.6827 39.2359 34.5292 39.3342 34.3992 39.4595C34.2662 39.5888 34.1618 39.7445 34.0926 39.9166C34.0235 40.0887 33.9911 40.2734 33.9977 40.4588C33.9904 40.6493 34.0223 40.8393 34.0914 41.017C34.1604 41.1947 34.2652 41.3563 34.3992 41.492C34.6657 41.7432 35.0181 41.8832 35.3844 41.8832C35.7507 41.8832 36.1031 41.7432 36.3696 41.492V41.492Z" fill="#60269E"/>
<path d="M39.9662 40.7852C39.0157 40.521 38.6378 40.0472 38.7013 39.296C38.7163 39.1234 38.771 38.9565 38.8611 38.8086C38.9513 38.6606 39.0744 38.5354 39.2208 38.4428C39.5458 38.2074 39.9384 38.0837 40.3396 38.0901C41.2415 38.0901 41.9632 38.5329 42.006 39.4436H41.0451C41.0053 39.1188 40.7219 38.9535 40.378 38.9535C40.1138 38.9535 39.8201 39.051 39.7315 39.2074C39.6937 39.2684 39.6705 39.3373 39.6636 39.4087C39.6567 39.4801 39.6663 39.5521 39.6917 39.6192C39.7404 39.7668 39.9278 39.8834 40.2511 39.972L40.9566 40.1491C41.7507 40.3454 42.1521 40.7852 42.1521 41.4775C42.1521 42.3409 41.3979 42.8605 40.3293 42.8605C39.8903 42.8657 39.4621 42.7239 39.1131 42.4575C38.9433 42.3297 38.806 42.1637 38.7124 41.9729C38.6188 41.7821 38.5715 41.5719 38.5743 41.3594H39.5101C39.5588 41.7623 39.8924 42.0162 40.4119 42.0162C40.8828 42.0162 41.2252 41.8111 41.2252 41.4671C41.2252 41.2029 41.0097 41.0244 40.5891 40.9284L39.9662 40.7852Z" fill="#60269E"/>
<path d="M51.5398 41.6235C51.2382 41.9929 50.8622 42.2947 50.4362 42.5091C50.0103 42.7235 49.5439 42.8458 49.0675 42.8679C48.5911 42.8901 48.1154 42.8116 47.6714 42.6376C47.2274 42.4636 46.825 42.198 46.4904 41.8582C45.8551 41.2005 45.5 40.3217 45.5 39.4073C45.5 38.4928 45.8551 37.6141 46.4904 36.9564C46.8014 36.6278 47.1773 36.3676 47.5943 36.1923C48.0113 36.0169 48.4602 35.9303 48.9125 35.938C49.4102 35.9328 49.9026 36.0392 50.3537 36.2494C50.8048 36.4597 51.203 36.7683 51.5191 37.1527L50.7162 37.78C50.496 37.5156 50.2202 37.303 49.9084 37.1573C49.5967 37.0116 49.2566 36.9365 48.9125 36.9372C48.5961 36.9327 48.2822 36.995 47.9915 37.1201C47.7007 37.2453 47.4397 37.4304 47.2255 37.6634C46.7854 38.1378 46.5409 38.7609 46.5409 39.408C46.5409 40.0551 46.7854 40.6783 47.2255 41.1526C47.4402 41.3843 47.7016 41.5678 47.9924 41.6912C48.2831 41.8146 48.5967 41.875 48.9125 41.8685C49.2651 41.8778 49.6147 41.8021 49.932 41.648C50.2492 41.4939 50.5247 41.2658 50.7354 40.9829L51.5398 41.6235Z" fill="#60269E"/>
<path d="M56.2456 38.7466C56.4756 38.9675 56.6564 39.2345 56.7762 39.53C56.896 39.8255 56.9521 40.143 56.9408 40.4617C56.9518 40.7844 56.8947 41.1057 56.7731 41.4048C56.6515 41.7039 56.4683 41.974 56.2353 42.1975C55.7745 42.6272 55.1679 42.8662 54.5379 42.8662C53.9078 42.8662 53.3012 42.6272 52.8405 42.1975C52.6122 41.9715 52.4332 41.7005 52.3151 41.4017C52.197 41.1029 52.1421 40.7828 52.1542 40.4617C52.1414 40.1436 52.1959 39.8264 52.3142 39.5309C52.4325 39.2353 52.6118 38.9681 52.8405 38.7466C53.3062 38.324 53.9127 38.0898 54.5416 38.0898C55.1705 38.0898 55.7769 38.324 56.2427 38.7466H56.2456ZM55.5298 41.492C55.6634 41.3561 55.768 41.1944 55.837 41.0168C55.9061 40.8391 55.9381 40.6492 55.9312 40.4588C55.937 40.2749 55.9049 40.0918 55.8369 39.9209C55.7689 39.7499 55.6664 39.5948 55.5358 39.4652C55.4053 39.3356 55.2494 39.2343 55.078 39.1675C54.9065 39.1008 54.7232 39.0701 54.5394 39.0772C54.3589 39.0731 54.1793 39.1047 54.0111 39.1703C53.8429 39.2359 53.6893 39.3342 53.5593 39.4595C53.4263 39.5888 53.3219 39.7445 53.2528 39.9166C53.1836 40.0887 53.1513 40.2734 53.1578 40.4588C53.1509 40.6492 53.183 40.8391 53.252 41.0168C53.3211 41.1944 53.4256 41.3561 53.5593 41.492C53.8258 41.7432 54.1782 41.8832 54.5445 41.8832C54.9108 41.8832 55.2633 41.7432 55.5298 41.492V41.492Z" fill="#60269E"/>
<path d="M62.1663 40.3057V42.7662H61.1552V40.198C61.1464 39.5013 60.7744 39.0807 60.2239 39.0807C59.5685 39.0807 59.0682 39.4718 59.0682 40.3057V42.7662H58.0586V38.1906H59.0682V38.877C59.1932 38.6049 59.4177 38.391 59.6955 38.2792C59.9504 38.1606 60.2276 38.0973 60.5087 38.0932C61.2054 38.0932 61.6856 38.3973 61.9493 39.0054C62.0901 38.7207 62.3105 38.483 62.5838 38.3211C62.857 38.1591 63.1714 38.08 63.4888 38.0932C64.6164 38.0932 65.2599 38.8312 65.2599 40.133V42.7692H64.2504V40.2172C64.2504 39.5116 63.8681 39.0807 63.2792 39.0807C62.6061 39.0807 62.1663 39.5707 62.1663 40.3057Z" fill="#60269E"/>
<path d="M70.9642 40.8341H67.3274C67.4144 41.5396 67.9827 41.9809 68.7281 41.9809C68.9752 41.9908 69.2204 41.9352 69.4392 41.8199C69.6579 41.7045 69.8423 41.5335 69.9738 41.3241L70.7974 41.6872C70.4048 42.4606 69.5915 42.868 68.6794 42.868C68.364 42.8758 68.0504 42.8187 67.7581 42.7C67.4657 42.5814 67.201 42.4038 66.9803 42.1784C66.7596 41.953 66.5876 41.6845 66.4752 41.3898C66.3627 41.095 66.3122 40.7803 66.3266 40.4651C66.3266 39.7492 66.5525 39.181 67.0026 38.75C67.2236 38.5333 67.4859 38.3635 67.774 38.2506C68.0621 38.1378 68.3701 38.0842 68.6794 38.0932C68.9845 38.0823 69.2885 38.1351 69.5721 38.2482C69.8557 38.3613 70.1126 38.5322 70.3266 38.75C70.7576 39.181 70.9731 39.7492 70.9731 40.4651C70.9731 40.6481 70.9731 40.7647 70.9642 40.8341ZM69.9827 40.0961C69.8956 39.3906 69.376 38.9699 68.6794 38.9699C67.9827 38.9699 67.4144 39.4009 67.3274 40.0961H69.9827Z" fill="#60269E"/>
<path d="M76.1507 40.3058V42.7662H75.1411V40.198C75.1307 39.5014 74.7588 39.0807 74.2097 39.0807C73.5529 39.0807 73.0525 39.4718 73.0525 40.3058V42.7662H72.043V38.1907H73.0525V38.877C73.1783 38.6055 73.4025 38.3918 73.6798 38.2792C73.9349 38.1608 74.212 38.0975 74.4931 38.0933C75.1898 38.0933 75.6705 38.3973 75.9352 39.0054C76.0758 38.7206 76.2962 38.4828 76.5695 38.3209C76.8428 38.1589 77.1572 38.0799 77.4746 38.0933C78.6008 38.0933 79.2384 38.8313 79.2384 40.1331V42.7692H78.2288V40.2172C78.2288 39.5117 77.8466 39.0807 77.2576 39.0807C76.592 39.0807 76.1507 39.5707 76.1507 40.3058Z" fill="#60269E"/>
<path d="M84.3946 38.7457C84.625 38.9664 84.8063 39.2332 84.9263 39.5288C85.0464 39.8244 85.1026 40.142 85.0912 40.4608C85.1015 40.7839 85.0434 41.1056 84.9208 41.4047C84.7982 41.7038 84.6139 41.9737 84.3798 42.1966C83.9191 42.6264 83.3125 42.8653 82.6824 42.8653C82.0524 42.8653 81.4458 42.6264 80.985 42.1966C80.7567 41.9706 80.5778 41.6996 80.4596 41.4008C80.3415 41.102 80.2867 40.7819 80.2987 40.4608C80.2859 40.1428 80.3405 39.8256 80.4587 39.53C80.577 39.2345 80.7564 38.9672 80.985 38.7457C81.4502 38.3249 82.0551 38.0918 82.6824 38.0918C83.3097 38.0918 83.9147 38.3249 84.3798 38.7457H84.3946ZM83.6787 41.4911C83.8129 41.3555 83.9179 41.1939 83.9872 41.0162C84.0565 40.8385 84.0886 40.6485 84.0817 40.4579C84.0875 40.274 84.0554 40.0909 83.9873 39.92C83.9193 39.749 83.8168 39.594 83.6863 39.4644C83.5557 39.3348 83.3998 39.2334 83.2284 39.1667C83.057 39.0999 82.8736 39.0692 82.6898 39.0764C82.5091 39.0723 82.3293 39.104 82.1609 39.1696C81.9925 39.2352 81.8387 39.3334 81.7083 39.4586C81.5753 39.5879 81.4709 39.7437 81.4017 39.9158C81.3326 40.0879 81.3003 40.2725 81.3068 40.4579C81.2999 40.6484 81.332 40.8382 81.401 41.0159C81.47 41.1935 81.5746 41.3552 81.7083 41.4911C81.9748 41.7424 82.3272 41.8823 82.6935 41.8823C83.0598 41.8823 83.4122 41.7424 83.6787 41.4911V41.4911Z" fill="#60269E"/>
<path d="M87.2791 40.7852C86.3286 40.521 85.9507 40.0472 86.0142 39.296C86.0292 39.1234 86.084 38.9565 86.1741 38.8086C86.2642 38.6606 86.3873 38.5354 86.5338 38.4428C86.8588 38.2074 87.2513 38.0837 87.6526 38.0901C88.5544 38.0901 89.2761 38.5329 89.319 39.4436H88.3655C88.3256 39.1188 88.0422 38.9535 87.6983 38.9535C87.4341 38.9535 87.1404 39.051 87.0518 39.2074C87.0137 39.2683 86.9903 39.3371 86.9834 39.4086C86.9765 39.4801 86.9863 39.5522 87.012 39.6192C87.0607 39.7668 87.2481 39.8834 87.5714 39.972L88.2769 40.1491C89.071 40.3454 89.4725 40.7852 89.4725 41.4775C89.4725 42.3409 88.7182 42.8605 87.6496 42.8605C87.2106 42.8657 86.7824 42.7239 86.4334 42.4575C86.2636 42.3297 86.1263 42.1637 86.0327 41.9729C85.9391 41.7821 85.8918 41.5719 85.8947 41.3594H86.826C86.8747 41.7623 87.2083 42.0162 87.7278 42.0162C88.1987 42.0162 88.5411 41.8111 88.5411 41.4671C88.5411 41.2029 88.3256 41.0244 87.9035 40.9284L87.2791 40.7852Z" fill="#60269E"/>
</g>
<defs>
<clipPath id="clip0_1872_13111">
<rect width="122.023" height="45" fill="white" transform="translate(0.988281)"/>
</clipPath>
</defs>
</svg>
