<svg width="123" height="46" viewBox="0 0 123 46" fill="none" xmlns="http://www.w3.org/2000/svg">
<g clip-path="url(#clip0_1872_12933)">
<path d="M121.88 9.9383C121.778 9.67988 121.623 9.44521 121.427 9.24874C121.23 9.05227 120.995 8.89815 120.737 8.79588C120.302 8.62453 119.821 8.60821 119.375 8.74966C118.93 8.89112 118.547 9.18171 118.29 9.57255C118.034 9.9634 117.92 10.4306 117.968 10.8956C118.015 11.3606 118.222 11.795 118.552 12.1257C118.833 12.4054 119.189 12.5972 119.577 12.6777C119.965 12.7581 120.368 12.7238 120.737 12.5788C120.985 12.4805 121.212 12.3342 121.403 12.1483C121.595 11.9624 121.749 11.7405 121.855 11.4953C121.961 11.25 122.018 10.9863 122.022 10.7192C122.026 10.452 121.977 10.1867 121.879 9.9383M121.542 11.1619C121.479 11.3749 121.372 11.5721 121.227 11.7405C121.083 11.9096 120.906 12.0477 120.707 12.1464C120.522 12.2373 120.322 12.2919 120.117 12.3073C119.912 12.3235 119.706 12.3014 119.51 12.2423C119.298 12.1773 119.101 12.0693 118.933 11.925C118.763 11.7822 118.624 11.6052 118.527 11.4054C118.435 11.2209 118.38 11.0204 118.365 10.815C118.331 10.3863 118.468 9.96168 118.747 9.63424C118.891 9.46551 119.069 9.32791 119.268 9.22982C119.452 9.13782 119.653 9.08314 119.858 9.06894C120.063 9.0514 120.269 9.07345 120.465 9.13388C120.677 9.19929 120.873 9.30672 121.042 9.44974C121.212 9.59342 121.35 9.77085 121.448 9.97077C121.63 10.3418 121.664 10.7683 121.542 11.1634" fill="#60269E"/>
<path d="M120.806 11.5465L120.395 10.9561C120.395 10.9561 120.395 10.9457 120.395 10.9428C120.515 10.8799 120.61 10.7787 120.666 10.6553C120.722 10.5319 120.734 10.3933 120.702 10.2618C120.67 10.1302 120.595 10.0132 120.489 9.92928C120.382 9.8454 120.251 9.79949 120.116 9.79888H119.298C119.295 9.79868 119.293 9.79903 119.29 9.7999C119.288 9.80077 119.285 9.80215 119.283 9.80396C119.282 9.80576 119.28 9.80794 119.279 9.81037C119.278 9.8128 119.277 9.81542 119.277 9.81807V11.5583C119.277 11.5609 119.278 11.5635 119.279 11.566C119.28 11.5684 119.282 11.5706 119.283 11.5724C119.285 11.5742 119.288 11.5756 119.29 11.5764C119.293 11.5773 119.295 11.5777 119.298 11.5775H119.657C119.662 11.5775 119.667 11.5754 119.67 11.5718C119.674 11.5682 119.676 11.5634 119.676 11.5583V11.0284C119.676 11.0259 119.676 11.0235 119.677 11.0212C119.678 11.0188 119.679 11.0167 119.681 11.0149C119.682 11.0131 119.684 11.0117 119.686 11.0107C119.689 11.0097 119.691 11.0092 119.694 11.0092H119.94C119.943 11.0081 119.945 11.0075 119.948 11.0075C119.951 11.0075 119.954 11.0081 119.956 11.0092L120.34 11.5612C120.342 11.5639 120.344 11.566 120.347 11.5676C120.35 11.5691 120.353 11.57 120.356 11.5701H120.799C120.803 11.57 120.806 11.5689 120.809 11.567C120.812 11.5651 120.815 11.5624 120.816 11.5591C120.818 11.5559 120.818 11.5523 120.818 11.5488C120.817 11.5453 120.816 11.5419 120.814 11.5391M120.249 10.5812C120.2 10.6302 120.133 10.6578 120.064 10.6579H119.688V10.1413H120.064C120.133 10.1414 120.2 10.169 120.249 10.2181C120.298 10.2675 120.325 10.3344 120.325 10.404C120.325 10.4737 120.298 10.5405 120.249 10.59" fill="#60269E"/>
<path d="M90.9402 23.3225C90.9343 24.7381 91.3349 26.1257 92.0946 27.3202C92.8542 28.5148 93.9409 29.4661 95.2254 30.061C96.51 30.6559 97.9384 30.8695 99.3407 30.6763C100.743 30.4831 102.061 29.8913 103.136 28.9711L103.16 28.952L103.533 28.6346L105.498 26.9697C105.528 26.9445 105.564 26.9285 105.602 26.9236C105.641 26.9186 105.68 26.925 105.715 26.9418C105.75 26.9587 105.779 26.9854 105.8 27.0186C105.82 27.0519 105.83 27.0903 105.829 27.1291L105.722 30.1239C105.682 31.2404 105.277 32.3131 104.57 33.1777C103.862 34.0423 102.891 34.6513 101.804 34.9115C100.718 35.1717 99.5761 35.0687 98.5536 34.6183C97.5312 34.1679 96.6845 33.3949 96.1431 32.4176C95.9785 32.122 95.8445 31.8105 95.7431 31.4877C95.697 31.3422 95.5971 31.2196 95.4639 31.1451C95.3306 31.0705 95.174 31.0495 95.0258 31.0862L90.3292 32.2331C90.2507 32.2524 90.177 32.2873 90.1123 32.3358C90.0477 32.3842 89.9934 32.4451 89.9528 32.5149C89.9122 32.5847 89.886 32.662 89.8759 32.7422C89.8657 32.8223 89.8718 32.9037 89.8938 32.9814C89.9922 33.3327 90.1088 33.6771 90.2436 34.0146C90.8276 35.4969 91.7227 36.8367 92.8685 37.9438C94.0142 39.0509 95.384 39.8994 96.8855 40.4322C98.8207 41.1193 100.893 41.3283 102.927 41.0416C104.96 40.7549 106.894 39.9808 108.564 38.7855C110.233 37.5901 111.589 36.0088 112.516 34.1763C113.443 32.3439 113.913 30.3145 113.886 28.2612V11.2873C113.886 11.2082 113.871 11.1299 113.841 11.0567C113.811 10.9836 113.766 10.9171 113.711 10.861C113.655 10.805 113.589 10.7605 113.516 10.73C113.443 10.6996 113.364 10.6838 113.285 10.6836H106.326C106.167 10.684 106.014 10.7476 105.901 10.8605C105.788 10.9734 105.725 11.1264 105.725 11.2858V21.8421C105.725 21.9545 105.693 22.0646 105.634 22.16C105.574 22.2554 105.489 22.3324 105.389 22.3823L103.626 23.2458L103.17 23.4746C102.74 23.6849 102.264 23.7823 101.786 23.7578C101.307 23.7332 100.843 23.5874 100.437 23.3341C100.031 23.0808 99.6959 22.7283 99.4634 22.3098C99.2309 21.8913 99.1088 21.4205 99.1084 20.9418V11.2873C99.1086 11.2076 99.0929 11.1286 99.0624 11.055C99.0318 10.9814 98.987 10.9146 98.9304 10.8584C98.8739 10.8023 98.8067 10.7579 98.7329 10.7279C98.659 10.6979 98.58 10.6828 98.5003 10.6836H91.5424C91.3827 10.6836 91.2295 10.7471 91.1166 10.86C91.0037 10.9729 90.9402 11.1261 90.9402 11.2858V23.3211V23.3225Z" fill="#60269E"/>
<path d="M87.8114 2.66602H80.8521C80.6927 2.66641 80.5399 2.73003 80.4272 2.84292C80.3146 2.95581 80.2514 3.10876 80.2514 3.26822V12.4194C80.2508 12.4578 80.2393 12.4952 80.2181 12.5272C80.1969 12.5592 80.167 12.5845 80.1319 12.6001C80.0968 12.6156 80.0579 12.6207 80.02 12.6149C79.9821 12.609 79.9466 12.5924 79.9178 12.567L79.5872 12.2718C79.416 12.1212 79.2388 11.978 79.0558 11.8422C75.8234 9.44672 71.8781 9.44672 68.6457 11.8422C67.6284 12.6145 66.7753 13.582 66.1365 14.688C65.4946 15.7913 65.0238 16.9857 64.7402 18.2303C64.7343 18.2514 64.7217 18.2701 64.7042 18.2833C64.6868 18.2966 64.6654 18.3037 64.6435 18.3037C64.6216 18.3037 64.6003 18.2966 64.5828 18.2833C64.5654 18.2701 64.5527 18.2514 64.5468 18.2303C63.7124 15.5204 61.8681 13.2349 59.3956 11.8467C57.2982 10.6682 54.9329 10.0492 52.5271 10.0492C50.1213 10.0492 47.756 10.6682 45.6586 11.8467C43.12 13.2706 41.246 15.639 40.4439 18.437C40.4376 18.4575 40.4249 18.4755 40.4076 18.4882C40.3904 18.501 40.3695 18.5079 40.348 18.5079C40.3265 18.5079 40.3056 18.501 40.2883 18.4882C40.2711 18.4755 40.2584 18.4575 40.252 18.437C39.45 15.6407 37.5779 13.2733 35.0418 11.8482C32.944 10.6692 30.5782 10.0499 28.1718 10.0499C25.7654 10.0499 23.3996 10.6692 21.3018 11.8482C19.593 12.8084 18.1703 14.2059 17.1796 15.8972C16.1889 17.5886 15.6659 19.5129 15.6641 21.4731C15.6623 23.4332 16.1818 25.3586 17.1694 27.0517C18.1569 28.7449 19.5771 30.1449 21.2841 31.1084L21.321 31.129C23.4171 32.3027 25.7797 32.9181 28.182 32.9163C30.5844 32.9145 32.946 32.2955 35.0403 31.1187C37.5769 29.6938 39.4495 27.3264 40.252 24.5299C40.2574 24.5085 40.2697 24.4895 40.2871 24.4759C40.3045 24.4623 40.3259 24.455 40.348 24.455C40.37 24.455 40.3915 24.4623 40.4088 24.4759C40.4262 24.4895 40.4386 24.5085 40.4439 24.5299C41.2458 27.3267 43.1186 29.6944 45.6556 31.1187C47.753 32.2971 50.1184 32.9161 52.5242 32.9161C54.93 32.9161 57.2953 32.2971 59.3927 31.1187C61.8675 29.7287 63.7125 27.4397 64.5454 24.7262C64.552 24.7052 64.5653 24.6871 64.5833 24.6744C64.6013 24.6618 64.6229 24.6554 64.6449 24.6563C64.6668 24.6571 64.6879 24.6651 64.7048 24.6791C64.7218 24.693 64.7337 24.7122 64.7387 24.7336C65.0219 25.9783 65.4927 27.1727 66.135 28.2759C66.7725 29.3833 67.6257 30.3515 68.6442 31.1231C71.8766 33.5201 75.8219 33.5201 79.0544 31.1231C79.2374 30.9873 79.4145 30.8442 79.5857 30.6936C79.6964 30.5977 79.8071 30.5017 79.9163 30.3984C79.9451 30.373 79.9806 30.3564 80.0185 30.3505C80.0565 30.3446 80.0953 30.3498 80.1304 30.3653C80.1655 30.3808 80.1954 30.4061 80.2166 30.4382C80.2378 30.4702 80.2494 30.5076 80.2499 30.546V31.6737C80.2499 31.8331 80.3131 31.9861 80.4258 32.099C80.5384 32.2119 80.6912 32.2755 80.8506 32.2759H87.8099C87.9694 32.2755 88.1222 32.2119 88.2348 32.099C88.3474 31.9861 88.4107 31.8331 88.4107 31.6737V3.26822C88.4107 3.10902 88.3476 2.95629 88.2353 2.84344C88.123 2.73059 87.9706 2.6668 87.8114 2.66602V2.66602ZM32.3142 23.2708C32.2655 23.4184 32.2094 23.566 32.1474 23.7136C32.0823 23.8596 32.0093 24.002 31.9289 24.1402C31.8475 24.2808 31.7583 24.4168 31.6618 24.5476C31.3676 24.9439 31.01 25.289 30.6035 25.569C30.4503 25.6737 30.2911 25.7693 30.1267 25.8553C29.9791 25.9276 29.8315 25.994 29.684 26.0516C29.5391 26.1087 29.3913 26.1579 29.2412 26.1992C28.5417 26.3911 27.8034 26.3911 27.1039 26.1992C26.9537 26.1582 26.8059 26.1089 26.6611 26.0516C26.3383 25.927 26.0311 25.7651 25.746 25.569C25.6111 25.4773 25.4811 25.3788 25.3563 25.2738C25.1081 25.0586 24.8839 24.817 24.6877 24.5535C24.5912 24.4227 24.502 24.2867 24.4206 24.1461C24.3406 24.0079 24.2682 23.8655 24.2036 23.7195C24.1398 23.5752 24.0841 23.4273 24.0368 23.2768C23.6633 22.1139 23.6633 20.8633 24.0368 19.7004C24.0839 19.5498 24.1396 19.4019 24.2036 19.2576C24.3339 18.9627 24.4963 18.6831 24.6877 18.4237C24.7852 18.2918 24.8901 18.1656 25.0021 18.0458C25.1139 17.9254 25.2322 17.8111 25.3563 17.7034C25.4808 17.598 25.6109 17.4995 25.746 17.4082C26.0311 17.2121 26.3383 17.0501 26.6611 16.9256C26.8059 16.8683 26.9537 16.819 27.1039 16.778C27.8034 16.5861 28.5417 16.5861 29.2412 16.778C29.3913 16.8192 29.5391 16.8685 29.684 16.9256C29.8315 16.9831 29.9791 17.0495 30.1267 17.1219C30.2911 17.2079 30.4503 17.3035 30.6035 17.4082C30.7389 17.4991 30.869 17.5977 30.9932 17.7034C31.1173 17.8111 31.2356 17.9254 31.3474 18.0458C31.4594 18.1656 31.5643 18.2918 31.6618 18.4237C31.853 18.6835 32.0158 18.9631 32.1474 19.2576C32.2094 19.4052 32.2655 19.5528 32.3142 19.7004C32.6844 20.8618 32.6839 22.1097 32.3127 23.2708H32.3142ZM56.668 23.2708C56.6207 23.4214 56.565 23.5693 56.5012 23.7136C56.4367 23.8599 56.3638 24.0023 56.2828 24.1402C56.2013 24.2808 56.1121 24.4168 56.0156 24.5476C55.9182 24.6791 55.8138 24.8052 55.7027 24.9254C55.4783 25.1663 55.2283 25.3821 54.9573 25.569C54.8046 25.6743 54.6453 25.7699 54.4806 25.8553C54.3365 25.9284 54.1887 25.9939 54.0378 26.0516C53.8929 26.1087 53.7451 26.1579 53.595 26.1992C52.896 26.3911 52.1582 26.3911 51.4592 26.1992C51.3091 26.1579 51.1613 26.1087 51.0164 26.0516C50.8655 25.9939 50.7177 25.9284 50.5736 25.8553C50.4089 25.7699 50.2497 25.6743 50.0969 25.569C49.9615 25.4781 49.8314 25.3795 49.7072 25.2738C49.5819 25.1669 49.4631 25.0525 49.3515 24.9313C49.2405 24.8111 49.136 24.685 49.0386 24.5535C48.8474 24.2937 48.6846 24.0141 48.553 23.7195C48.4892 23.5752 48.4336 23.4273 48.3862 23.2768C48.0142 22.1137 48.0142 20.8635 48.3862 19.7004C48.4333 19.5498 48.489 19.4019 48.553 19.2576C48.6846 18.9631 48.8474 18.6835 49.0386 18.4237C49.136 18.2922 49.2405 18.166 49.3515 18.0458C49.4635 17.925 49.5823 17.8107 49.7072 17.7034C49.8314 17.5977 49.9615 17.4991 50.0969 17.4082C50.2497 17.3029 50.4089 17.2072 50.5736 17.1219C50.7177 17.0488 50.8655 16.9832 51.0164 16.9256C51.1613 16.8685 51.3091 16.8192 51.4592 16.778C52.1582 16.5861 52.896 16.5861 53.595 16.778C53.7451 16.8192 53.8929 16.8685 54.0378 16.9256C54.1887 16.9832 54.3365 17.0488 54.4806 17.1219C54.6453 17.2072 54.8046 17.3029 54.9573 17.4082C55.0927 17.4991 55.2228 17.5977 55.347 17.7034C55.4716 17.8111 55.5904 17.9254 55.7027 18.0458C55.8138 18.166 55.9182 18.2922 56.0156 18.4237C56.1118 18.5547 56.201 18.6907 56.2828 18.8311C56.3635 18.9691 56.4364 19.1115 56.5012 19.2576C56.5652 19.4019 56.6209 19.5498 56.668 19.7004C57.0378 20.862 57.0367 22.1099 56.6651 23.2708H56.668ZM80.2543 24.6479C80.2533 24.704 80.2406 24.7592 80.217 24.8101C80.1933 24.8609 80.1593 24.9062 80.1171 24.9431L79.782 25.2383L79.7584 25.259C79.6337 25.3641 79.5036 25.4626 79.3687 25.5542C79.0836 25.7503 78.7765 25.9123 78.4536 26.0368C78.3088 26.0941 78.161 26.1434 78.0108 26.1844C77.3118 26.3763 76.5741 26.3763 75.8751 26.1844C75.7249 26.1432 75.5771 26.0939 75.4323 26.0368C75.2847 25.9793 75.1371 25.9129 74.9895 25.8405C74.8249 25.7549 74.6657 25.6592 74.5127 25.5542C74.2417 25.3673 73.9918 25.1515 73.7674 24.9107C73.6563 24.7905 73.5518 24.6643 73.4544 24.5328C73.3579 24.4021 73.2687 24.2661 73.1873 24.1254C73.1063 23.9876 73.0334 23.8452 72.9688 23.6989C72.9051 23.5545 72.8494 23.4067 72.8021 23.2561C72.4301 22.093 72.4301 20.8428 72.8021 19.6798C72.8492 19.5291 72.9049 19.3813 72.9688 19.237C73.0337 19.0908 73.1066 18.9484 73.1873 18.8104C73.2691 18.67 73.3583 18.534 73.4544 18.403C73.5518 18.2715 73.6563 18.1454 73.7674 18.0252C73.8797 17.9047 73.9984 17.7904 74.1231 17.6827C74.2472 17.577 74.3773 17.4784 74.5127 17.3875C74.6655 17.2822 74.8247 17.1866 74.9895 17.1012C75.1336 17.0281 75.2814 16.9626 75.4323 16.9049C75.5771 16.8479 75.7249 16.7986 75.8751 16.7573C76.5741 16.5654 77.3118 16.5654 78.0108 16.7573C78.161 16.7984 78.3088 16.8476 78.4536 16.9049C78.7765 17.0295 79.0836 17.1915 79.3687 17.3875C79.5036 17.4792 79.6337 17.5777 79.7584 17.6827C79.7584 17.6827 79.7746 17.696 79.782 17.7049L80.1171 18.0001C80.1593 18.037 80.1933 18.0823 80.217 18.1331C80.2406 18.184 80.2533 18.2392 80.2543 18.2953V24.6479Z" fill="#60269E"/>
<path d="M16.5842 1.92441C15.3413 1.21141 13.9682 0.754262 12.5459 0.579866C11.1237 0.40547 9.68085 0.517354 8.30245 0.908933C6.77776 1.34262 5.43603 2.26156 4.48063 3.52646C3.52524 4.79136 3.00826 6.33325 3.00807 7.91841V10.7597C3.00808 10.7862 3.00278 10.8125 2.99249 10.837C2.9822 10.8615 2.96712 10.8836 2.94815 10.9022C2.92918 10.9207 2.90668 10.9353 2.882 10.9451C2.85731 10.9548 2.83092 10.9595 2.80438 10.959H0.602204C0.44249 10.959 0.289317 11.0224 0.176382 11.1353C0.0634463 11.2483 0 11.4014 0 11.5612L0 15.998C0 16.1577 0.0634463 16.3109 0.176382 16.4238C0.289317 16.5367 0.44249 16.6002 0.602204 16.6002H2.80438C2.85762 16.6002 2.90868 16.6213 2.94632 16.659C2.98397 16.6966 3.00512 16.7477 3.00512 16.8009V31.6789C3.00551 31.8384 3.06913 31.9912 3.18202 32.1038C3.29491 32.2164 3.44786 32.2796 3.60732 32.2796H10.5681C10.7276 32.2796 10.8805 32.2164 10.9934 32.1038C11.1063 31.9912 11.1699 31.8384 11.1703 31.6789V16.8068C11.1703 16.7546 11.1906 16.7044 11.227 16.6669C11.2634 16.6295 11.3129 16.6076 11.3651 16.6061H15.0551C15.2148 16.6061 15.368 16.5426 15.4809 16.4297C15.5939 16.3168 15.6573 16.1636 15.6573 16.0039V11.5612C15.6573 11.4014 15.5939 11.2483 15.4809 11.1353C15.368 11.0224 15.2148 10.959 15.0551 10.959H11.3651C11.3388 10.9591 11.3128 10.9541 11.2884 10.9442C11.2641 10.9343 11.2419 10.9196 11.2233 10.9011C11.2046 10.8826 11.1898 10.8606 11.1797 10.8363C11.1696 10.812 11.1644 10.786 11.1644 10.7597V9.14791C11.164 8.76951 11.2497 8.39597 11.415 8.05558C11.5803 7.7152 11.8209 7.41689 12.1186 7.18323C12.4162 6.94957 12.7631 6.7867 13.133 6.70694C13.5029 6.62718 13.8862 6.63262 14.2536 6.72286L15.7134 7.07562C15.7965 7.09564 15.883 7.09767 15.967 7.08158C16.051 7.06549 16.1306 7.03165 16.2004 6.98232C16.2703 6.933 16.3288 6.86933 16.3721 6.79556C16.4154 6.7218 16.4424 6.63965 16.4514 6.5546L16.8809 2.51038C16.8937 2.39446 16.8724 2.27732 16.8197 2.17326C16.7671 2.06921 16.6852 1.98274 16.5842 1.92441V1.92441Z" fill="#60269E"/>
<path d="M4.21661 43.2658H3.20703V36.1973H4.21661V39.3441C4.49114 38.8644 5.08892 38.5898 5.75607 38.5898C6.05728 38.582 6.35689 38.6363 6.63622 38.7493C6.91554 38.8623 7.16861 39.0316 7.37966 39.2467C7.60303 39.4754 7.77741 39.7473 7.89212 40.0458C8.00683 40.3442 8.05946 40.6629 8.0468 40.9824C8.05816 41.2996 8.00384 41.6156 7.88726 41.9108C7.77068 42.2059 7.59434 42.4738 7.36932 42.6975C7.1589 42.9141 6.90618 43.0851 6.62687 43.1999C6.34757 43.3146 6.04764 43.3707 5.74573 43.3647C5.10811 43.3647 4.49114 43.0798 4.21661 42.6001V43.2658ZM5.62913 42.3802C5.81134 42.3825 5.99211 42.3478 6.16055 42.2783C6.329 42.2088 6.48161 42.1059 6.60919 41.9758C6.74172 41.8418 6.84565 41.6824 6.91467 41.507C6.98368 41.3317 7.01634 41.1442 7.01066 40.9559C7.01762 40.7721 6.98673 40.5888 6.9199 40.4175C6.85307 40.2462 6.75174 40.0904 6.62218 39.9599C6.49263 39.8294 6.33762 39.7269 6.16679 39.6588C5.99596 39.5907 5.81295 39.5584 5.62913 39.564C5.26555 39.5612 4.91477 39.6981 4.64907 39.9463C4.50779 40.0724 4.39653 40.2285 4.32348 40.4032C4.25043 40.5779 4.21745 40.7667 4.22694 40.9559C4.21722 41.1437 4.24664 41.3316 4.31334 41.5074C4.38003 41.6833 4.48254 41.8435 4.61437 41.9776C4.74621 42.1118 4.90448 42.2172 5.07916 42.287C5.25385 42.3568 5.44113 42.3895 5.62913 42.3831V42.3802Z" fill="#60269E"/>
<path d="M13.2119 38.6875L10.378 45.5007H9.3197L10.3101 43.0505L8.49609 38.6875H9.57504L10.8488 41.8284L12.1329 38.6905L13.2119 38.6875Z" fill="#60269E"/>
<path d="M15.582 37.4804V36.5137H20.6211V37.4834H18.6314V43.2678H17.5717V37.4804H15.582Z" fill="#60269E"/>
<path d="M24.5254 39.2457C24.7559 39.4664 24.9371 39.7332 25.0571 40.0288C25.1772 40.3244 25.2334 40.642 25.2221 40.9608C25.2331 41.2835 25.1759 41.6049 25.0544 41.9039C24.9328 42.203 24.7495 42.4731 24.5165 42.6966C24.0558 43.1264 23.4492 43.3653 22.8191 43.3653C22.1891 43.3653 21.5825 43.1264 21.1218 42.6966C20.8934 42.4706 20.7145 42.1996 20.5963 41.9008C20.4782 41.602 20.4234 41.2819 20.4354 40.9608C20.4226 40.6428 20.4772 40.3256 20.5954 40.03C20.7137 39.7345 20.8931 39.4672 21.1218 39.2457C21.5869 38.8249 22.1918 38.5918 22.8191 38.5918C23.4464 38.5918 24.0514 38.8249 24.5165 39.2457H24.5254ZM23.811 41.9911C23.9447 41.8552 24.0493 41.6935 24.1183 41.5159C24.1873 41.3382 24.2194 41.1484 24.2125 40.9579C24.2183 40.774 24.1862 40.5909 24.1182 40.42C24.0501 40.249 23.9476 40.094 23.8171 39.9644C23.6865 39.8348 23.5306 39.7334 23.3592 39.6667C23.1878 39.5999 23.0044 39.5692 22.8206 39.5764C22.6401 39.5722 22.4606 39.6038 22.2923 39.6694C22.1241 39.7351 21.9706 39.8333 21.8406 39.9586C21.7073 40.0878 21.6026 40.2435 21.5332 40.4156C21.4638 40.5877 21.4313 40.7724 21.4376 40.9579C21.4306 41.1485 21.4628 41.3385 21.5321 41.5162C21.6014 41.6939 21.7064 41.8555 21.8406 41.9911C22.1071 42.2424 22.4595 42.3823 22.8258 42.3823C23.1921 42.3823 23.5445 42.2424 23.811 41.9911V41.9911Z" fill="#60269E"/>
<path d="M29.89 43.2658V42.6001C29.6155 43.0798 29.0044 43.3647 28.3417 43.3647C28.0405 43.3722 27.741 43.3177 27.4617 43.2047C27.1825 43.0918 26.9294 42.9226 26.7181 42.7079C26.4959 42.4805 26.3222 42.2103 26.2078 41.9136C26.0933 41.617 26.0405 41.3001 26.0524 40.9824C26.0524 40.2666 26.2679 39.6983 26.7078 39.257C26.9191 39.0416 27.172 38.8714 27.4511 38.7567C27.7302 38.642 28.0297 38.5853 28.3314 38.5898C28.9985 38.5898 29.6051 38.8644 29.8797 39.3441V36.1973H30.8804V43.2658H29.89ZM29.4472 39.9522C29.1807 39.7043 28.8296 39.5675 28.4657 39.5699C28.2821 39.5636 28.0991 39.5954 27.9285 39.6633C27.7578 39.7313 27.603 39.8339 27.474 39.9647C27.345 40.0955 27.2446 40.2517 27.179 40.4233C27.1134 40.5949 27.0841 40.7783 27.093 40.9618C27.0846 41.1516 27.1151 41.3412 27.1826 41.5189C27.2501 41.6966 27.3532 41.8586 27.4856 41.995C27.6139 42.1232 27.767 42.224 27.9354 42.2913C28.1039 42.3585 28.2843 42.3908 28.4657 42.3861C28.6532 42.3924 28.8399 42.3598 29.0142 42.2904C29.1884 42.2209 29.3464 42.1161 29.4782 41.9826C29.6099 41.8491 29.7126 41.6897 29.7796 41.5145C29.8467 41.3393 29.8767 41.1521 29.8679 40.9647C29.878 40.7755 29.8458 40.5864 29.7736 40.4112C29.7013 40.236 29.5908 40.0792 29.4502 39.9522H29.4472Z" fill="#60269E"/>
<path d="M36.0972 39.2466C36.3272 39.4675 36.5079 39.7345 36.6277 40.03C36.7475 40.3255 36.8036 40.643 36.7924 40.9617C36.8034 41.2844 36.7462 41.6057 36.6247 41.9048C36.5031 42.2039 36.3198 42.474 36.0868 42.6975C35.6261 43.1272 35.0195 43.3662 34.3895 43.3662C33.7594 43.3662 33.1528 43.1272 32.6921 42.6975C32.4637 42.4715 32.2848 42.2005 32.1667 41.9017C32.0485 41.6029 31.9937 41.2828 32.0057 40.9617C31.993 40.6436 32.0475 40.3264 32.1658 40.0309C32.284 39.7353 32.4634 39.4681 32.6921 39.2466C33.1578 38.824 33.7642 38.5898 34.3931 38.5898C35.0221 38.5898 35.6285 38.824 36.0942 39.2466H36.0972ZM35.3813 41.992C35.515 41.8561 35.6196 41.6944 35.6886 41.5168C35.7576 41.3391 35.7897 41.1492 35.7828 40.9588C35.7886 40.7749 35.7565 40.5918 35.6885 40.4209C35.6204 40.2499 35.518 40.0948 35.3874 39.9652C35.2568 39.8356 35.101 39.7343 34.9295 39.6675C34.7581 39.6008 34.5748 39.5701 34.3909 39.5772C34.2104 39.5731 34.0309 39.6047 33.8626 39.6703C33.6944 39.7359 33.5409 39.8342 33.4109 39.9595C33.2779 40.0888 33.1735 40.2445 33.1043 40.4166C33.0352 40.5887 33.0029 40.7734 33.0094 40.9588C33.0022 41.1493 33.034 41.3393 33.1031 41.517C33.1721 41.6947 33.2769 41.8563 33.4109 41.992C33.6774 42.2432 34.0298 42.3832 34.3961 42.3832C34.7624 42.3832 35.1148 42.2432 35.3813 41.992V41.992Z" fill="#60269E"/>
<path d="M38.9779 41.2852C38.0274 41.021 37.6495 40.5472 37.713 39.796C37.728 39.6234 37.7827 39.4565 37.8729 39.3086C37.963 39.1606 38.0861 39.0354 38.2325 38.9428C38.5576 38.7074 38.9501 38.5837 39.3513 38.5901C40.2532 38.5901 40.9749 39.0329 41.0177 39.9436H40.0569C40.017 39.6188 39.7336 39.4535 39.3897 39.4535C39.1255 39.4535 38.8318 39.551 38.7432 39.7074C38.7055 39.7684 38.6822 39.8373 38.6753 39.9087C38.6684 39.9801 38.678 40.0521 38.7034 40.1192C38.7521 40.2668 38.9395 40.3834 39.2628 40.472L39.9683 40.6491C40.7624 40.8454 41.1639 41.2852 41.1639 41.9775C41.1639 42.8409 40.4096 43.3605 39.341 43.3605C38.902 43.3657 38.4738 43.2239 38.1248 42.9575C37.955 42.8297 37.8177 42.6637 37.7241 42.4729C37.6305 42.2821 37.5832 42.0719 37.5861 41.8594H38.5218C38.5705 42.2623 38.9041 42.5162 39.4237 42.5162C39.8945 42.5162 40.2369 42.3111 40.2369 41.9671C40.2369 41.7029 40.0214 41.5244 39.6008 41.4284L38.9779 41.2852Z" fill="#60269E"/>
<path d="M50.5515 42.1235C50.25 42.4929 49.8739 42.7947 49.448 43.0091C49.022 43.2235 48.5556 43.3458 48.0792 43.3679C47.6028 43.3901 47.1271 43.3116 46.6831 43.1376C46.2391 42.9636 45.8367 42.698 45.5022 42.3582C44.8668 41.7005 44.5117 40.8217 44.5117 39.9073C44.5117 38.9928 44.8668 38.1141 45.5022 37.4564C45.8131 37.1278 46.189 36.8676 46.606 36.6923C47.023 36.5169 47.472 36.4303 47.9243 36.438C48.4219 36.4328 48.9144 36.5392 49.3655 36.7494C49.8165 36.9597 50.2148 37.2683 50.5309 37.6527L49.7279 38.28C49.5077 38.0156 49.2319 37.803 48.9201 37.6573C48.6084 37.5116 48.2684 37.4365 47.9243 37.4372C47.6078 37.4327 47.2939 37.495 47.0032 37.6201C46.7125 37.7453 46.4514 37.9304 46.2372 38.1634C45.7971 38.6378 45.5526 39.2609 45.5526 39.908C45.5526 40.5551 45.7971 41.1783 46.2372 41.6526C46.4519 41.8843 46.7133 42.0678 47.0041 42.1912C47.2949 42.3146 47.6085 42.375 47.9243 42.3685C48.2768 42.3778 48.6265 42.3021 48.9437 42.148C49.2609 41.9939 49.5365 41.7658 49.7471 41.4829L50.5515 42.1235Z" fill="#60269E"/>
<path d="M55.2573 39.2466C55.4873 39.4675 55.6681 39.7345 55.7879 40.03C55.9077 40.3255 55.9638 40.643 55.9525 40.9617C55.9635 41.2844 55.9064 41.6057 55.7848 41.9048C55.6632 42.2039 55.48 42.474 55.247 42.6975C54.7863 43.1272 54.1797 43.3662 53.5496 43.3662C52.9196 43.3662 52.313 43.1272 51.8522 42.6975C51.6239 42.4715 51.445 42.2005 51.3268 41.9017C51.2087 41.6029 51.1539 41.2828 51.1659 40.9617C51.1531 40.6436 51.2076 40.3264 51.3259 40.0309C51.4442 39.7353 51.6235 39.4681 51.8522 39.2466C52.318 38.824 52.9244 38.5898 53.5533 38.5898C54.1822 38.5898 54.7886 38.824 55.2544 39.2466H55.2573ZM54.5415 41.992C54.6752 41.8561 54.7797 41.6944 54.8488 41.5168C54.9178 41.3391 54.9498 41.1492 54.9429 40.9588C54.9488 40.7749 54.9167 40.5918 54.8486 40.4209C54.7806 40.2499 54.6781 40.0948 54.5475 39.9652C54.417 39.8356 54.2611 39.7343 54.0897 39.6675C53.9183 39.6008 53.7349 39.5701 53.5511 39.5772C53.3706 39.5731 53.191 39.6047 53.0228 39.6703C52.8546 39.7359 52.701 39.8342 52.571 39.9595C52.4381 40.0888 52.3336 40.2445 52.2645 40.4166C52.1953 40.5887 52.163 40.7734 52.1696 40.9588C52.1627 41.1492 52.1947 41.3391 52.2637 41.5168C52.3328 41.6944 52.4373 41.8561 52.571 41.992C52.8375 42.2432 53.19 42.3832 53.5563 42.3832C53.9225 42.3832 54.275 42.2432 54.5415 41.992V41.992Z" fill="#60269E"/>
<path d="M61.178 40.8057V43.2662H60.1669V40.698C60.1581 40.0013 59.7861 39.5807 59.2356 39.5807C58.5802 39.5807 58.0799 39.9718 58.0799 40.8057V43.2662H57.0703V38.6906H58.0799V39.377C58.2049 39.1049 58.4294 38.891 58.7072 38.7792C58.9622 38.6606 59.2393 38.5973 59.5205 38.5932C60.2171 38.5932 60.6973 38.8973 60.961 39.5054C61.1018 39.2207 61.3223 38.983 61.5955 38.8211C61.8688 38.6591 62.1831 38.58 62.5005 38.5932C63.6281 38.5932 64.2717 39.3312 64.2717 40.633V43.2692H63.2621V40.7172C63.2621 40.0116 62.8798 39.5807 62.2909 39.5807C61.6178 39.5807 61.178 40.0707 61.178 40.8057Z" fill="#60269E"/>
<path d="M69.9759 41.3341H66.3391C66.4262 42.0396 66.9944 42.4809 67.7398 42.4809C67.9869 42.4908 68.2322 42.4352 68.4509 42.3199C68.6696 42.2045 68.854 42.0335 68.9855 41.8241L69.8091 42.1872C69.4165 42.9606 68.6033 43.368 67.6911 43.368C67.3757 43.3758 67.0621 43.3187 66.7698 43.2C66.4775 43.0814 66.2127 42.9038 65.992 42.6784C65.7713 42.453 65.5993 42.1845 65.4869 41.8898C65.3744 41.595 65.3239 41.2803 65.3384 40.9651C65.3384 40.2492 65.5642 39.681 66.0144 39.25C66.2353 39.0333 66.4976 38.8635 66.7858 38.7506C67.0739 38.6378 67.3818 38.5842 67.6911 38.5932C67.9962 38.5823 68.3002 38.6351 68.5838 38.7482C68.8674 38.8613 69.1244 39.0322 69.3383 39.25C69.7693 39.681 69.9848 40.2492 69.9848 40.9651C69.9848 41.1481 69.9848 41.2647 69.9759 41.3341ZM68.9944 40.5961C68.9073 39.8906 68.3878 39.4699 67.6911 39.4699C66.9944 39.4699 66.4262 39.9009 66.3391 40.5961H68.9944Z" fill="#60269E"/>
<path d="M75.1624 40.8058V43.2662H74.1528V40.698C74.1425 40.0014 73.7705 39.5807 73.2214 39.5807C72.5646 39.5807 72.0643 39.9718 72.0643 40.8058V43.2662H71.0547V38.6907H72.0643V39.377C72.1901 39.1055 72.4143 38.8918 72.6916 38.7792C72.9466 38.6608 73.2237 38.5975 73.5048 38.5933C74.2015 38.5933 74.6822 38.8973 74.9469 39.5054C75.0876 39.2206 75.3079 38.9828 75.5812 38.8209C75.8545 38.6589 76.169 38.5799 76.4863 38.5933C77.6125 38.5933 78.2501 39.3313 78.2501 40.6331V43.2692H77.2406V40.7172C77.2406 40.0117 76.8583 39.5807 76.2694 39.5807C75.6037 39.5807 75.1624 40.0707 75.1624 40.8058Z" fill="#60269E"/>
<path d="M83.4063 39.2457C83.6368 39.4664 83.818 39.7332 83.938 40.0288C84.0581 40.3244 84.1143 40.642 84.103 40.9608C84.1132 41.2839 84.0551 41.6056 83.9325 41.9047C83.8099 42.2038 83.6256 42.4737 83.3915 42.6966C82.9308 43.1264 82.3242 43.3653 81.6941 43.3653C81.0641 43.3653 80.4575 43.1264 79.9968 42.6966C79.7684 42.4706 79.5895 42.1996 79.4713 41.9008C79.3532 41.602 79.2984 41.2819 79.3104 40.9608C79.2976 40.6428 79.3522 40.3256 79.4705 40.03C79.5887 39.7345 79.7681 39.4672 79.9968 39.2457C80.4619 38.8249 81.0668 38.5918 81.6941 38.5918C82.3214 38.5918 82.9264 38.8249 83.3915 39.2457H83.4063ZM82.6904 41.9911C82.8246 41.8555 82.9296 41.6939 82.9989 41.5162C83.0682 41.3385 83.1003 41.1485 83.0934 40.9579C83.0992 40.774 83.0671 40.5909 82.9991 40.42C82.931 40.249 82.8285 40.094 82.698 39.9644C82.5674 39.8348 82.4116 39.7334 82.2401 39.6667C82.0687 39.5999 81.8853 39.5692 81.7015 39.5764C81.5208 39.5723 81.3411 39.604 81.1726 39.6696C81.0042 39.7352 80.8504 39.8334 80.72 39.9586C80.587 40.0879 80.4826 40.2437 80.4135 40.4158C80.3443 40.5879 80.312 40.7725 80.3185 40.9579C80.3116 41.1484 80.3437 41.3382 80.4127 41.5159C80.4817 41.6935 80.5863 41.8552 80.72 41.9911C80.9865 42.2424 81.3389 42.3823 81.7052 42.3823C82.0715 42.3823 82.4239 42.2424 82.6904 41.9911V41.9911Z" fill="#60269E"/>
<path d="M86.2908 41.2852C85.3403 41.021 84.9625 40.5472 85.0259 39.796C85.041 39.6234 85.0957 39.4565 85.1858 39.3086C85.2759 39.1606 85.399 39.0354 85.5455 38.9428C85.8705 38.7074 86.263 38.5837 86.6643 38.5901C87.5661 38.5901 88.2879 39.0329 88.3307 39.9436H87.3772C87.3373 39.6188 87.0539 39.4535 86.71 39.4535C86.4458 39.4535 86.1521 39.551 86.0635 39.7074C86.0255 39.7683 86.002 39.8371 85.9951 39.9086C85.9882 39.9801 85.998 40.0522 86.0237 40.1192C86.0724 40.2668 86.2599 40.3834 86.5831 40.472L87.2886 40.6491C88.0827 40.8454 88.4842 41.2852 88.4842 41.9775C88.4842 42.8409 87.7299 43.3605 86.6613 43.3605C86.2223 43.3657 85.7941 43.2239 85.4451 42.9575C85.2753 42.8297 85.1381 42.6637 85.0444 42.4729C84.9508 42.2821 84.9035 42.0719 84.9064 41.8594H85.8377C85.8864 42.2623 86.22 42.5162 86.7395 42.5162C87.2104 42.5162 87.5528 42.3111 87.5528 41.9671C87.5528 41.7029 87.3373 41.5244 86.9152 41.4284L86.2908 41.2852Z" fill="#60269E"/>
</g>
<defs>
<clipPath id="clip0_1872_12933">
<rect width="122.023" height="45" fill="white" transform="translate(0 0.5)"/>
</clipPath>
</defs>
</svg>
