<svg width="123" height="45" viewBox="0 0 123 45" fill="none" xmlns="http://www.w3.org/2000/svg">
<g clip-path="url(#clip0_1859_15991)">
<path d="M121.88 9.4383C121.778 9.17988 121.623 8.94521 121.427 8.74874C121.23 8.55227 120.995 8.39815 120.737 8.29588C120.302 8.12453 119.821 8.10821 119.375 8.24966C118.93 8.39112 118.547 8.68171 118.29 9.07255C118.034 9.4634 117.92 9.93063 117.968 10.3956C118.015 10.8606 118.222 11.295 118.552 11.6257C118.833 11.9054 119.189 12.0972 119.577 12.1777C119.965 12.2581 120.368 12.2238 120.737 12.0788C120.985 11.9805 121.212 11.8342 121.403 11.6483C121.595 11.4624 121.749 11.2405 121.855 10.9953C121.961 10.75 122.018 10.4863 122.022 10.2192C122.026 9.95203 121.977 9.68668 121.879 9.4383M121.542 10.6619C121.479 10.8749 121.372 11.0721 121.227 11.2405C121.083 11.4096 120.906 11.5477 120.707 11.6464C120.522 11.7373 120.322 11.7919 120.117 11.8073C119.912 11.8235 119.706 11.8014 119.51 11.7423C119.298 11.6773 119.101 11.5693 118.933 11.425C118.763 11.2822 118.624 11.1052 118.527 10.9054C118.435 10.7209 118.38 10.5204 118.365 10.315C118.331 9.88634 118.468 9.46168 118.747 9.13424C118.891 8.96551 119.069 8.82791 119.268 8.72982C119.452 8.63782 119.653 8.58314 119.858 8.56894C120.063 8.5514 120.269 8.57345 120.465 8.63388C120.677 8.69929 120.873 8.80672 121.042 8.94974C121.212 9.09342 121.35 9.27085 121.448 9.47077C121.63 9.84179 121.664 10.2683 121.542 10.6634" fill="#60269E"/>
<path d="M120.806 11.0465L120.395 10.4561C120.395 10.4561 120.395 10.4457 120.395 10.4428C120.515 10.3799 120.61 10.2787 120.666 10.1553C120.722 10.0319 120.734 9.89335 120.702 9.76178C120.67 9.63022 120.595 9.51317 120.489 9.42928C120.382 9.3454 120.251 9.29949 120.116 9.29888H119.298C119.295 9.29868 119.293 9.29903 119.29 9.2999C119.288 9.30077 119.285 9.30215 119.283 9.30396C119.282 9.30576 119.28 9.30794 119.279 9.31037C119.278 9.3128 119.277 9.31542 119.277 9.31807V11.0583C119.277 11.0609 119.278 11.0635 119.279 11.066C119.28 11.0684 119.282 11.0706 119.283 11.0724C119.285 11.0742 119.288 11.0756 119.29 11.0764C119.293 11.0773 119.295 11.0777 119.298 11.0775H119.657C119.662 11.0775 119.667 11.0754 119.67 11.0718C119.674 11.0682 119.676 11.0634 119.676 11.0583V10.5284C119.676 10.5259 119.676 10.5235 119.677 10.5212C119.678 10.5188 119.679 10.5167 119.681 10.5149C119.682 10.5131 119.684 10.5117 119.686 10.5107C119.689 10.5097 119.691 10.5092 119.694 10.5092H119.94C119.943 10.5081 119.945 10.5075 119.948 10.5075C119.951 10.5075 119.954 10.5081 119.956 10.5092L120.34 11.0612C120.342 11.0639 120.344 11.066 120.347 11.0676C120.35 11.0691 120.353 11.07 120.356 11.0701H120.799C120.803 11.07 120.806 11.0689 120.809 11.067C120.812 11.0651 120.815 11.0624 120.816 11.0591C120.818 11.0559 120.818 11.0523 120.818 11.0488C120.817 11.0453 120.816 11.0419 120.814 11.0391M120.249 10.0812C120.2 10.1302 120.133 10.1578 120.064 10.1579H119.688V9.64131H120.064C120.133 9.64144 120.2 9.66904 120.249 9.71807C120.298 9.76754 120.325 9.83438 120.325 9.90404C120.325 9.9737 120.298 10.0405 120.249 10.09" fill="#60269E"/>
<path d="M90.9402 22.8225C90.9343 24.2381 91.3349 25.6257 92.0946 26.8202C92.8542 28.0148 93.9409 28.9661 95.2254 29.561C96.51 30.1559 97.9384 30.3695 99.3407 30.1763C100.743 29.9831 102.061 29.3913 103.136 28.4711L103.16 28.452L103.533 28.1346L105.498 26.4697C105.528 26.4445 105.564 26.4285 105.602 26.4236C105.641 26.4186 105.68 26.425 105.715 26.4418C105.75 26.4587 105.779 26.4854 105.8 26.5186C105.82 26.5519 105.83 26.5903 105.829 26.6291L105.722 29.6239C105.682 30.7404 105.277 31.8131 104.57 32.6777C103.862 33.5423 102.891 34.1513 101.804 34.4115C100.718 34.6717 99.5761 34.5687 98.5536 34.1183C97.5312 33.6679 96.6845 32.8949 96.1431 31.9176C95.9785 31.622 95.8445 31.3105 95.7431 30.9877C95.697 30.8422 95.5971 30.7196 95.4639 30.6451C95.3306 30.5705 95.174 30.5495 95.0258 30.5862L90.3292 31.7331C90.2507 31.7524 90.177 31.7873 90.1123 31.8358C90.0477 31.8842 89.9934 31.9451 89.9528 32.0149C89.9122 32.0847 89.886 32.162 89.8759 32.2422C89.8657 32.3223 89.8718 32.4037 89.8938 32.4814C89.9922 32.8327 90.1088 33.1771 90.2436 33.5146C90.8276 34.9969 91.7227 36.3367 92.8685 37.4438C94.0142 38.5509 95.384 39.3994 96.8855 39.9322C98.8207 40.6193 100.893 40.8283 102.927 40.5416C104.96 40.2549 106.894 39.4808 108.564 38.2855C110.233 37.0901 111.589 35.5088 112.516 33.6763C113.443 31.8439 113.913 29.8145 113.886 27.7612V10.7873C113.886 10.7082 113.871 10.6299 113.841 10.5567C113.811 10.4836 113.766 10.4171 113.711 10.361C113.655 10.305 113.589 10.2605 113.516 10.23C113.443 10.1996 113.364 10.1838 113.285 10.1836H106.326C106.167 10.184 106.014 10.2476 105.901 10.3605C105.788 10.4734 105.725 10.6264 105.725 10.7858V21.3421C105.725 21.4545 105.693 21.5646 105.634 21.66C105.574 21.7554 105.489 21.8324 105.389 21.8823L103.626 22.7458L103.17 22.9746C102.74 23.1849 102.264 23.2823 101.786 23.2578C101.307 23.2332 100.843 23.0874 100.437 22.8341C100.031 22.5808 99.6959 22.2283 99.4634 21.8098C99.2309 21.3913 99.1088 20.9205 99.1084 20.4418V10.7873C99.1086 10.7076 99.0929 10.6286 99.0624 10.555C99.0318 10.4814 98.987 10.4146 98.9304 10.3584C98.8739 10.3023 98.8067 10.2579 98.7329 10.2279C98.659 10.1979 98.58 10.1828 98.5003 10.1836H91.5424C91.3827 10.1836 91.2295 10.2471 91.1166 10.36C91.0037 10.4729 90.9402 10.6261 90.9402 10.7858V22.8211V22.8225Z" fill="#60269E"/>
<path d="M87.8114 2.16602H80.8521C80.6927 2.16641 80.5399 2.23003 80.4272 2.34292C80.3146 2.45581 80.2514 2.60876 80.2514 2.76822V11.9194C80.2508 11.9578 80.2393 11.9952 80.2181 12.0272C80.1969 12.0592 80.167 12.0845 80.1319 12.1001C80.0968 12.1156 80.0579 12.1207 80.02 12.1149C79.9821 12.109 79.9466 12.0924 79.9178 12.067L79.5872 11.7718C79.416 11.6212 79.2388 11.478 79.0558 11.3422C75.8234 8.94672 71.8781 8.94672 68.6457 11.3422C67.6284 12.1145 66.7753 13.082 66.1365 14.188C65.4946 15.2913 65.0238 16.4857 64.7402 17.7303C64.7343 17.7514 64.7217 17.7701 64.7042 17.7833C64.6868 17.7966 64.6654 17.8037 64.6435 17.8037C64.6216 17.8037 64.6003 17.7966 64.5828 17.7833C64.5654 17.7701 64.5527 17.7514 64.5468 17.7303C63.7124 15.0204 61.8681 12.7349 59.3956 11.3467C57.2982 10.1682 54.9329 9.54923 52.5271 9.54923C50.1213 9.54923 47.756 10.1682 45.6586 11.3467C43.12 12.7706 41.246 15.139 40.4439 17.937C40.4376 17.9575 40.4249 17.9755 40.4076 17.9882C40.3904 18.001 40.3695 18.0079 40.348 18.0079C40.3265 18.0079 40.3056 18.001 40.2883 17.9882C40.2711 17.9755 40.2584 17.9575 40.252 17.937C39.45 15.1407 37.5779 12.7733 35.0418 11.3482C32.944 10.1692 30.5782 9.54987 28.1718 9.54987C25.7654 9.54987 23.3996 10.1692 21.3018 11.3482C19.593 12.3084 18.1703 13.7059 17.1796 15.3972C16.1889 17.0886 15.6659 19.0129 15.6641 20.9731C15.6623 22.9332 16.1818 24.8586 17.1694 26.5517C18.1569 28.2449 19.5771 29.6449 21.2841 30.6084L21.321 30.629C23.4171 31.8027 25.7797 32.4181 28.182 32.4163C30.5844 32.4145 32.946 31.7955 35.0403 30.6187C37.5769 29.1938 39.4495 26.8264 40.252 24.0299C40.2574 24.0085 40.2697 23.9895 40.2871 23.9759C40.3045 23.9623 40.3259 23.955 40.348 23.955C40.37 23.955 40.3915 23.9623 40.4088 23.9759C40.4262 23.9895 40.4386 24.0085 40.4439 24.0299C41.2458 26.8267 43.1186 29.1944 45.6556 30.6187C47.753 31.7971 50.1184 32.4161 52.5242 32.4161C54.93 32.4161 57.2953 31.7971 59.3927 30.6187C61.8675 29.2287 63.7125 26.9397 64.5454 24.2262C64.552 24.2052 64.5653 24.1871 64.5833 24.1744C64.6013 24.1618 64.6229 24.1554 64.6449 24.1563C64.6668 24.1571 64.6879 24.1651 64.7048 24.1791C64.7218 24.193 64.7337 24.2122 64.7387 24.2336C65.0219 25.4783 65.4927 26.6727 66.135 27.7759C66.7725 28.8833 67.6257 29.8515 68.6442 30.6231C71.8766 33.0201 75.8219 33.0201 79.0544 30.6231C79.2374 30.4873 79.4145 30.3442 79.5857 30.1936C79.6964 30.0977 79.8071 30.0017 79.9163 29.8984C79.9451 29.873 79.9806 29.8564 80.0185 29.8505C80.0565 29.8446 80.0953 29.8498 80.1304 29.8653C80.1655 29.8808 80.1954 29.9061 80.2166 29.9382C80.2378 29.9702 80.2494 30.0076 80.2499 30.046V31.1737C80.2499 31.3331 80.3131 31.4861 80.4258 31.599C80.5384 31.7119 80.6912 31.7755 80.8506 31.7759H87.8099C87.9694 31.7755 88.1222 31.7119 88.2348 31.599C88.3474 31.4861 88.4107 31.3331 88.4107 31.1737V2.76822C88.4107 2.60902 88.3476 2.45629 88.2353 2.34344C88.123 2.23059 87.9706 2.1668 87.8114 2.16602V2.16602ZM32.3142 22.7708C32.2655 22.9184 32.2094 23.066 32.1474 23.2136C32.0823 23.3596 32.0093 23.502 31.9289 23.6402C31.8475 23.7808 31.7583 23.9168 31.6618 24.0476C31.3676 24.4439 31.01 24.789 30.6035 25.069C30.4503 25.1737 30.2911 25.2693 30.1267 25.3553C29.9791 25.4276 29.8315 25.494 29.684 25.5516C29.5391 25.6087 29.3913 25.6579 29.2412 25.6992C28.5417 25.8911 27.8034 25.8911 27.1039 25.6992C26.9537 25.6582 26.8059 25.6089 26.6611 25.5516C26.3383 25.427 26.0311 25.2651 25.746 25.069C25.6111 24.9773 25.4811 24.8788 25.3563 24.7738C25.1081 24.5586 24.8839 24.317 24.6877 24.0535C24.5912 23.9227 24.502 23.7867 24.4206 23.6461C24.3406 23.5079 24.2682 23.3655 24.2036 23.2195C24.1398 23.0752 24.0841 22.9273 24.0368 22.7768C23.6633 21.6139 23.6633 20.3633 24.0368 19.2004C24.0839 19.0498 24.1396 18.9019 24.2036 18.7576C24.3339 18.4627 24.4963 18.1831 24.6877 17.9237C24.7852 17.7918 24.8901 17.6656 25.0021 17.5458C25.1139 17.4254 25.2322 17.3111 25.3563 17.2034C25.4808 17.098 25.6109 16.9995 25.746 16.9082C26.0311 16.7121 26.3383 16.5501 26.6611 16.4256C26.8059 16.3683 26.9537 16.319 27.1039 16.278C27.8034 16.0861 28.5417 16.0861 29.2412 16.278C29.3913 16.3192 29.5391 16.3685 29.684 16.4256C29.8315 16.4831 29.9791 16.5495 30.1267 16.6219C30.2911 16.7079 30.4503 16.8035 30.6035 16.9082C30.7389 16.9991 30.869 17.0977 30.9932 17.2034C31.1173 17.3111 31.2356 17.4254 31.3474 17.5458C31.4594 17.6656 31.5643 17.7918 31.6618 17.9237C31.853 18.1835 32.0158 18.4631 32.1474 18.7576C32.2094 18.9052 32.2655 19.0528 32.3142 19.2004C32.6844 20.3618 32.6839 21.6097 32.3127 22.7708H32.3142ZM56.668 22.7708C56.6207 22.9214 56.565 23.0693 56.5012 23.2136C56.4367 23.3599 56.3638 23.5023 56.2828 23.6402C56.2013 23.7808 56.1121 23.9168 56.0156 24.0476C55.9182 24.1791 55.8138 24.3052 55.7027 24.4254C55.4783 24.6663 55.2283 24.8821 54.9573 25.069C54.8046 25.1743 54.6453 25.2699 54.4806 25.3553C54.3365 25.4284 54.1887 25.4939 54.0378 25.5516C53.8929 25.6087 53.7451 25.6579 53.595 25.6992C52.896 25.8911 52.1582 25.8911 51.4592 25.6992C51.3091 25.6579 51.1613 25.6087 51.0164 25.5516C50.8655 25.4939 50.7177 25.4284 50.5736 25.3553C50.4089 25.2699 50.2497 25.1743 50.0969 25.069C49.9615 24.9781 49.8314 24.8795 49.7072 24.7738C49.5819 24.6669 49.4631 24.5525 49.3515 24.4313C49.2405 24.3111 49.136 24.185 49.0386 24.0535C48.8474 23.7937 48.6846 23.5141 48.553 23.2195C48.4892 23.0752 48.4336 22.9273 48.3862 22.7768C48.0142 21.6137 48.0142 20.3635 48.3862 19.2004C48.4333 19.0498 48.489 18.9019 48.553 18.7576C48.6846 18.4631 48.8474 18.1835 49.0386 17.9237C49.136 17.7922 49.2405 17.666 49.3515 17.5458C49.4635 17.425 49.5823 17.3107 49.7072 17.2034C49.8314 17.0977 49.9615 16.9991 50.0969 16.9082C50.2497 16.8029 50.4089 16.7072 50.5736 16.6219C50.7177 16.5488 50.8655 16.4832 51.0164 16.4256C51.1613 16.3685 51.3091 16.3192 51.4592 16.278C52.1582 16.0861 52.896 16.0861 53.595 16.278C53.7451 16.3192 53.8929 16.3685 54.0378 16.4256C54.1887 16.4832 54.3365 16.5488 54.4806 16.6219C54.6453 16.7072 54.8046 16.8029 54.9573 16.9082C55.0927 16.9991 55.2228 17.0977 55.347 17.2034C55.4716 17.3111 55.5904 17.4254 55.7027 17.5458C55.8138 17.666 55.9182 17.7922 56.0156 17.9237C56.1118 18.0547 56.201 18.1907 56.2828 18.3311C56.3635 18.4691 56.4364 18.6115 56.5012 18.7576C56.5652 18.9019 56.6209 19.0498 56.668 19.2004C57.0378 20.362 57.0367 21.6099 56.6651 22.7708H56.668ZM80.2543 24.1479C80.2533 24.204 80.2406 24.2592 80.217 24.3101C80.1933 24.3609 80.1593 24.4062 80.1171 24.4431L79.782 24.7383L79.7584 24.759C79.6337 24.8641 79.5036 24.9626 79.3687 25.0542C79.0836 25.2503 78.7765 25.4123 78.4536 25.5368C78.3088 25.5941 78.161 25.6434 78.0108 25.6844C77.3118 25.8763 76.5741 25.8763 75.8751 25.6844C75.7249 25.6432 75.5771 25.5939 75.4323 25.5368C75.2847 25.4793 75.1371 25.4129 74.9895 25.3405C74.8249 25.2549 74.6657 25.1592 74.5127 25.0542C74.2417 24.8673 73.9918 24.6515 73.7674 24.4107C73.6563 24.2905 73.5518 24.1643 73.4544 24.0328C73.3579 23.9021 73.2687 23.7661 73.1873 23.6254C73.1063 23.4876 73.0334 23.3452 72.9688 23.1989C72.9051 23.0545 72.8494 22.9067 72.8021 22.7561C72.4301 21.593 72.4301 20.3428 72.8021 19.1798C72.8492 19.0291 72.9049 18.8813 72.9688 18.737C73.0337 18.5908 73.1066 18.4484 73.1873 18.3104C73.2691 18.17 73.3583 18.034 73.4544 17.903C73.5518 17.7715 73.6563 17.6454 73.7674 17.5252C73.8797 17.4047 73.9984 17.2904 74.1231 17.1827C74.2472 17.077 74.3773 16.9784 74.5127 16.8875C74.6655 16.7822 74.8247 16.6866 74.9895 16.6012C75.1336 16.5281 75.2814 16.4626 75.4323 16.4049C75.5771 16.3479 75.7249 16.2986 75.8751 16.2573C76.5741 16.0654 77.3118 16.0654 78.0108 16.2573C78.161 16.2984 78.3088 16.3476 78.4536 16.4049C78.7765 16.5295 79.0836 16.6915 79.3687 16.8875C79.5036 16.9792 79.6337 17.0777 79.7584 17.1827C79.7584 17.1827 79.7746 17.196 79.782 17.2049L80.1171 17.5001C80.1593 17.537 80.1933 17.5823 80.217 17.6331C80.2406 17.684 80.2533 17.7392 80.2543 17.7953V24.1479Z" fill="#60269E"/>
<path d="M16.5842 1.42441C15.3413 0.711414 13.9682 0.254262 12.5459 0.0798658C11.1237 -0.0945301 9.68085 0.0173542 8.30245 0.408933C6.77776 0.842623 5.43603 1.76156 4.48063 3.02646C3.52524 4.29136 3.00826 5.83325 3.00807 7.41841V10.2597C3.00808 10.2862 3.00278 10.3125 2.99249 10.337C2.9822 10.3615 2.96712 10.3836 2.94815 10.4022C2.92918 10.4207 2.90668 10.4353 2.882 10.4451C2.85731 10.4548 2.83092 10.4595 2.80438 10.459H0.602204C0.44249 10.459 0.289317 10.5224 0.176382 10.6353C0.0634463 10.7483 0 10.9014 0 11.0612L0 15.498C0 15.6577 0.0634463 15.8109 0.176382 15.9238C0.289317 16.0367 0.44249 16.1002 0.602204 16.1002H2.80438C2.85762 16.1002 2.90868 16.1213 2.94632 16.159C2.98397 16.1966 3.00512 16.2477 3.00512 16.3009V31.1789C3.00551 31.3384 3.06913 31.4912 3.18202 31.6038C3.29491 31.7164 3.44786 31.7796 3.60732 31.7796H10.5681C10.7276 31.7796 10.8805 31.7164 10.9934 31.6038C11.1063 31.4912 11.1699 31.3384 11.1703 31.1789V16.3068C11.1703 16.2546 11.1906 16.2044 11.227 16.1669C11.2634 16.1295 11.3129 16.1076 11.3651 16.1061H15.0551C15.2148 16.1061 15.368 16.0426 15.4809 15.9297C15.5939 15.8168 15.6573 15.6636 15.6573 15.5039V11.0612C15.6573 10.9014 15.5939 10.7483 15.4809 10.6353C15.368 10.5224 15.2148 10.459 15.0551 10.459H11.3651C11.3388 10.4591 11.3128 10.4541 11.2884 10.4442C11.2641 10.4343 11.2419 10.4196 11.2233 10.4011C11.2046 10.3826 11.1898 10.3606 11.1797 10.3363C11.1696 10.312 11.1644 10.286 11.1644 10.2597V8.64791C11.164 8.26951 11.2497 7.89597 11.415 7.55558C11.5803 7.2152 11.8209 6.91689 12.1186 6.68323C12.4162 6.44957 12.7631 6.2867 13.133 6.20694C13.5029 6.12718 13.8862 6.13262 14.2536 6.22286L15.7134 6.57562C15.7965 6.59564 15.883 6.59767 15.967 6.58158C16.051 6.56549 16.1306 6.53165 16.2004 6.48232C16.2703 6.433 16.3288 6.36933 16.3721 6.29556C16.4154 6.2218 16.4424 6.13965 16.4514 6.0546L16.8809 2.01038C16.8937 1.89446 16.8724 1.77732 16.8197 1.67326C16.7671 1.56921 16.6852 1.48274 16.5842 1.42441V1.42441Z" fill="#60269E"/>
<path d="M4.21661 42.7658H3.20703V35.6973H4.21661V38.8441C4.49114 38.3644 5.08892 38.0898 5.75607 38.0898C6.05728 38.082 6.35689 38.1363 6.63622 38.2493C6.91554 38.3623 7.16861 38.5316 7.37966 38.7467C7.60303 38.9754 7.77741 39.2473 7.89212 39.5458C8.00683 39.8442 8.05946 40.1629 8.0468 40.4824C8.05816 40.7996 8.00384 41.1156 7.88726 41.4108C7.77068 41.7059 7.59434 41.9738 7.36932 42.1975C7.1589 42.4141 6.90618 42.5851 6.62687 42.6999C6.34757 42.8146 6.04764 42.8707 5.74573 42.8647C5.10811 42.8647 4.49114 42.5798 4.21661 42.1001V42.7658ZM5.62913 41.8802C5.81134 41.8825 5.99211 41.8478 6.16055 41.7783C6.329 41.7088 6.48161 41.6059 6.60919 41.4758C6.74172 41.3418 6.84565 41.1824 6.91467 41.007C6.98368 40.8317 7.01634 40.6442 7.01066 40.4559C7.01762 40.2721 6.98673 40.0888 6.9199 39.9175C6.85307 39.7462 6.75174 39.5904 6.62218 39.4599C6.49263 39.3294 6.33762 39.2269 6.16679 39.1588C5.99596 39.0907 5.81295 39.0584 5.62913 39.064C5.26555 39.0612 4.91477 39.1981 4.64907 39.4463C4.50779 39.5724 4.39653 39.7285 4.32348 39.9032C4.25043 40.0779 4.21745 40.2667 4.22694 40.4559C4.21722 40.6437 4.24664 40.8316 4.31334 41.0074C4.38003 41.1833 4.48254 41.3435 4.61437 41.4776C4.74621 41.6118 4.90448 41.7172 5.07916 41.787C5.25385 41.8568 5.44113 41.8895 5.62913 41.8831V41.8802Z" fill="#60269E"/>
<path d="M13.2119 38.1875L10.378 45.0007H9.3197L10.3101 42.5505L8.49609 38.1875H9.57504L10.8488 41.3284L12.1329 38.1905L13.2119 38.1875Z" fill="#60269E"/>
<path d="M15.582 36.9804V36.0137H20.6211V36.9834H18.6314V42.7678H17.5717V36.9804H15.582Z" fill="#60269E"/>
<path d="M24.5254 38.7457C24.7559 38.9664 24.9371 39.2332 25.0571 39.5288C25.1772 39.8244 25.2334 40.142 25.2221 40.4608C25.2331 40.7835 25.1759 41.1049 25.0544 41.4039C24.9328 41.703 24.7495 41.9731 24.5165 42.1966C24.0558 42.6264 23.4492 42.8653 22.8191 42.8653C22.1891 42.8653 21.5825 42.6264 21.1218 42.1966C20.8934 41.9706 20.7145 41.6996 20.5963 41.4008C20.4782 41.102 20.4234 40.7819 20.4354 40.4608C20.4226 40.1428 20.4772 39.8256 20.5954 39.53C20.7137 39.2345 20.8931 38.9672 21.1218 38.7457C21.5869 38.3249 22.1918 38.0918 22.8191 38.0918C23.4464 38.0918 24.0514 38.3249 24.5165 38.7457H24.5254ZM23.811 41.4911C23.9447 41.3552 24.0493 41.1935 24.1183 41.0159C24.1873 40.8382 24.2194 40.6484 24.2125 40.4579C24.2183 40.274 24.1862 40.0909 24.1182 39.92C24.0501 39.749 23.9476 39.594 23.8171 39.4644C23.6865 39.3348 23.5306 39.2334 23.3592 39.1667C23.1878 39.0999 23.0044 39.0692 22.8206 39.0764C22.6401 39.0722 22.4606 39.1038 22.2923 39.1694C22.1241 39.2351 21.9706 39.3333 21.8406 39.4586C21.7073 39.5878 21.6026 39.7435 21.5332 39.9156C21.4638 40.0877 21.4313 40.2724 21.4376 40.4579C21.4306 40.6485 21.4628 40.8385 21.5321 41.0162C21.6014 41.1939 21.7064 41.3555 21.8406 41.4911C22.1071 41.7424 22.4595 41.8823 22.8258 41.8823C23.1921 41.8823 23.5445 41.7424 23.811 41.4911V41.4911Z" fill="#60269E"/>
<path d="M29.89 42.7658V42.1001C29.6155 42.5798 29.0044 42.8647 28.3417 42.8647C28.0405 42.8722 27.741 42.8177 27.4617 42.7047C27.1825 42.5918 26.9294 42.4226 26.7181 42.2079C26.4959 41.9805 26.3222 41.7103 26.2078 41.4136C26.0933 41.117 26.0405 40.8001 26.0524 40.4824C26.0524 39.7666 26.2679 39.1983 26.7078 38.757C26.9191 38.5416 27.172 38.3714 27.4511 38.2567C27.7302 38.142 28.0297 38.0853 28.3314 38.0898C28.9985 38.0898 29.6051 38.3644 29.8797 38.8441V35.6973H30.8804V42.7658H29.89ZM29.4472 39.4522C29.1807 39.2043 28.8296 39.0675 28.4657 39.0699C28.2821 39.0636 28.0991 39.0954 27.9285 39.1633C27.7578 39.2313 27.603 39.3339 27.474 39.4647C27.345 39.5955 27.2446 39.7517 27.179 39.9233C27.1134 40.0949 27.0841 40.2783 27.093 40.4618C27.0846 40.6516 27.1151 40.8412 27.1826 41.0189C27.2501 41.1966 27.3532 41.3586 27.4856 41.495C27.6139 41.6232 27.767 41.724 27.9354 41.7913C28.1039 41.8585 28.2843 41.8908 28.4657 41.8861C28.6532 41.8924 28.8399 41.8598 29.0142 41.7904C29.1884 41.7209 29.3464 41.6161 29.4782 41.4826C29.6099 41.3491 29.7126 41.1897 29.7796 41.0145C29.8467 40.8393 29.8767 40.6521 29.8679 40.4647C29.878 40.2755 29.8458 40.0864 29.7736 39.9112C29.7013 39.736 29.5908 39.5792 29.4502 39.4522H29.4472Z" fill="#60269E"/>
<path d="M36.0972 38.7466C36.3272 38.9675 36.5079 39.2345 36.6277 39.53C36.7475 39.8255 36.8036 40.143 36.7924 40.4617C36.8034 40.7844 36.7462 41.1057 36.6247 41.4048C36.5031 41.7039 36.3198 41.974 36.0868 42.1975C35.6261 42.6272 35.0195 42.8662 34.3895 42.8662C33.7594 42.8662 33.1528 42.6272 32.6921 42.1975C32.4637 41.9715 32.2848 41.7005 32.1667 41.4017C32.0485 41.1029 31.9937 40.7828 32.0057 40.4617C31.993 40.1436 32.0475 39.8264 32.1658 39.5309C32.284 39.2353 32.4634 38.9681 32.6921 38.7466C33.1578 38.324 33.7642 38.0898 34.3931 38.0898C35.0221 38.0898 35.6285 38.324 36.0942 38.7466H36.0972ZM35.3813 41.492C35.515 41.3561 35.6196 41.1944 35.6886 41.0168C35.7576 40.8391 35.7897 40.6492 35.7828 40.4588C35.7886 40.2749 35.7565 40.0918 35.6885 39.9209C35.6204 39.7499 35.518 39.5948 35.3874 39.4652C35.2568 39.3356 35.101 39.2343 34.9295 39.1675C34.7581 39.1008 34.5748 39.0701 34.3909 39.0772C34.2104 39.0731 34.0309 39.1047 33.8626 39.1703C33.6944 39.2359 33.5409 39.3342 33.4109 39.4595C33.2779 39.5888 33.1735 39.7445 33.1043 39.9166C33.0352 40.0887 33.0029 40.2734 33.0094 40.4588C33.0022 40.6493 33.034 40.8393 33.1031 41.017C33.1721 41.1947 33.2769 41.3563 33.4109 41.492C33.6774 41.7432 34.0298 41.8832 34.3961 41.8832C34.7624 41.8832 35.1148 41.7432 35.3813 41.492V41.492Z" fill="#60269E"/>
<path d="M38.9779 40.7852C38.0274 40.521 37.6495 40.0472 37.713 39.296C37.728 39.1234 37.7827 38.9565 37.8729 38.8086C37.963 38.6606 38.0861 38.5354 38.2325 38.4428C38.5576 38.2074 38.9501 38.0837 39.3513 38.0901C40.2532 38.0901 40.9749 38.5329 41.0177 39.4436H40.0569C40.017 39.1188 39.7336 38.9535 39.3897 38.9535C39.1255 38.9535 38.8318 39.051 38.7432 39.2074C38.7055 39.2684 38.6822 39.3373 38.6753 39.4087C38.6684 39.4801 38.678 39.5521 38.7034 39.6192C38.7521 39.7668 38.9395 39.8834 39.2628 39.972L39.9683 40.1491C40.7624 40.3454 41.1639 40.7852 41.1639 41.4775C41.1639 42.3409 40.4096 42.8605 39.341 42.8605C38.902 42.8657 38.4738 42.7239 38.1248 42.4575C37.955 42.3297 37.8177 42.1637 37.7241 41.9729C37.6305 41.7821 37.5832 41.5719 37.5861 41.3594H38.5218C38.5705 41.7623 38.9041 42.0162 39.4237 42.0162C39.8945 42.0162 40.2369 41.8111 40.2369 41.4671C40.2369 41.2029 40.0214 41.0244 39.6008 40.9284L38.9779 40.7852Z" fill="#60269E"/>
<path d="M50.5515 41.6235C50.25 41.9929 49.8739 42.2947 49.448 42.5091C49.022 42.7235 48.5556 42.8458 48.0792 42.8679C47.6028 42.8901 47.1271 42.8116 46.6831 42.6376C46.2391 42.4636 45.8367 42.198 45.5022 41.8582C44.8668 41.2005 44.5117 40.3217 44.5117 39.4073C44.5117 38.4928 44.8668 37.6141 45.5022 36.9564C45.8131 36.6278 46.189 36.3676 46.606 36.1923C47.023 36.0169 47.472 35.9303 47.9243 35.938C48.4219 35.9328 48.9144 36.0392 49.3655 36.2494C49.8165 36.4597 50.2148 36.7683 50.5309 37.1527L49.7279 37.78C49.5077 37.5156 49.2319 37.303 48.9201 37.1573C48.6084 37.0116 48.2684 36.9365 47.9243 36.9372C47.6078 36.9327 47.2939 36.995 47.0032 37.1201C46.7125 37.2453 46.4514 37.4304 46.2372 37.6634C45.7971 38.1378 45.5526 38.7609 45.5526 39.408C45.5526 40.0551 45.7971 40.6783 46.2372 41.1526C46.4519 41.3843 46.7133 41.5678 47.0041 41.6912C47.2949 41.8146 47.6085 41.875 47.9243 41.8685C48.2768 41.8778 48.6265 41.8021 48.9437 41.648C49.2609 41.4939 49.5365 41.2658 49.7471 40.9829L50.5515 41.6235Z" fill="#60269E"/>
<path d="M55.2573 38.7466C55.4873 38.9675 55.6681 39.2345 55.7879 39.53C55.9077 39.8255 55.9638 40.143 55.9525 40.4617C55.9635 40.7844 55.9064 41.1057 55.7848 41.4048C55.6632 41.7039 55.48 41.974 55.247 42.1975C54.7863 42.6272 54.1797 42.8662 53.5496 42.8662C52.9196 42.8662 52.313 42.6272 51.8522 42.1975C51.6239 41.9715 51.445 41.7005 51.3268 41.4017C51.2087 41.1029 51.1539 40.7828 51.1659 40.4617C51.1531 40.1436 51.2076 39.8264 51.3259 39.5309C51.4442 39.2353 51.6235 38.9681 51.8522 38.7466C52.318 38.324 52.9244 38.0898 53.5533 38.0898C54.1822 38.0898 54.7886 38.324 55.2544 38.7466H55.2573ZM54.5415 41.492C54.6752 41.3561 54.7797 41.1944 54.8488 41.0168C54.9178 40.8391 54.9498 40.6492 54.9429 40.4588C54.9488 40.2749 54.9167 40.0918 54.8486 39.9209C54.7806 39.7499 54.6781 39.5948 54.5475 39.4652C54.417 39.3356 54.2611 39.2343 54.0897 39.1675C53.9183 39.1008 53.7349 39.0701 53.5511 39.0772C53.3706 39.0731 53.191 39.1047 53.0228 39.1703C52.8546 39.2359 52.701 39.3342 52.571 39.4595C52.4381 39.5888 52.3336 39.7445 52.2645 39.9166C52.1953 40.0887 52.163 40.2734 52.1696 40.4588C52.1627 40.6492 52.1947 40.8391 52.2637 41.0168C52.3328 41.1944 52.4373 41.3561 52.571 41.492C52.8375 41.7432 53.19 41.8832 53.5563 41.8832C53.9225 41.8832 54.275 41.7432 54.5415 41.492V41.492Z" fill="#60269E"/>
<path d="M61.178 40.3057V42.7662H60.1669V40.198C60.1581 39.5013 59.7861 39.0807 59.2356 39.0807C58.5802 39.0807 58.0799 39.4718 58.0799 40.3057V42.7662H57.0703V38.1906H58.0799V38.877C58.2049 38.6049 58.4294 38.391 58.7072 38.2792C58.9622 38.1606 59.2393 38.0973 59.5205 38.0932C60.2171 38.0932 60.6973 38.3973 60.961 39.0054C61.1018 38.7207 61.3223 38.483 61.5955 38.3211C61.8688 38.1591 62.1831 38.08 62.5005 38.0932C63.6281 38.0932 64.2717 38.8312 64.2717 40.133V42.7692H63.2621V40.2172C63.2621 39.5116 62.8798 39.0807 62.2909 39.0807C61.6178 39.0807 61.178 39.5707 61.178 40.3057Z" fill="#60269E"/>
<path d="M69.9759 40.8341H66.3391C66.4262 41.5396 66.9944 41.9809 67.7398 41.9809C67.9869 41.9908 68.2322 41.9352 68.4509 41.8199C68.6696 41.7045 68.854 41.5335 68.9855 41.3241L69.8091 41.6872C69.4165 42.4606 68.6033 42.868 67.6911 42.868C67.3757 42.8758 67.0621 42.8187 66.7698 42.7C66.4775 42.5814 66.2127 42.4038 65.992 42.1784C65.7713 41.953 65.5993 41.6845 65.4869 41.3898C65.3744 41.095 65.3239 40.7803 65.3384 40.4651C65.3384 39.7492 65.5642 39.181 66.0144 38.75C66.2353 38.5333 66.4976 38.3635 66.7858 38.2506C67.0739 38.1378 67.3818 38.0842 67.6911 38.0932C67.9962 38.0823 68.3002 38.1351 68.5838 38.2482C68.8674 38.3613 69.1244 38.5322 69.3383 38.75C69.7693 39.181 69.9848 39.7492 69.9848 40.4651C69.9848 40.6481 69.9848 40.7647 69.9759 40.8341ZM68.9944 40.0961C68.9073 39.3906 68.3878 38.9699 67.6911 38.9699C66.9944 38.9699 66.4262 39.4009 66.3391 40.0961H68.9944Z" fill="#60269E"/>
<path d="M75.1624 40.3058V42.7662H74.1528V40.198C74.1425 39.5014 73.7705 39.0807 73.2214 39.0807C72.5646 39.0807 72.0643 39.4718 72.0643 40.3058V42.7662H71.0547V38.1907H72.0643V38.877C72.1901 38.6055 72.4143 38.3918 72.6916 38.2792C72.9466 38.1608 73.2237 38.0975 73.5048 38.0933C74.2015 38.0933 74.6822 38.3973 74.9469 39.0054C75.0876 38.7206 75.3079 38.4828 75.5812 38.3209C75.8545 38.1589 76.169 38.0799 76.4863 38.0933C77.6125 38.0933 78.2501 38.8313 78.2501 40.1331V42.7692H77.2406V40.2172C77.2406 39.5117 76.8583 39.0807 76.2694 39.0807C75.6037 39.0807 75.1624 39.5707 75.1624 40.3058Z" fill="#60269E"/>
<path d="M83.4063 38.7457C83.6368 38.9664 83.818 39.2332 83.938 39.5288C84.0581 39.8244 84.1143 40.142 84.103 40.4608C84.1132 40.7839 84.0551 41.1056 83.9325 41.4047C83.8099 41.7038 83.6256 41.9737 83.3915 42.1966C82.9308 42.6264 82.3242 42.8653 81.6941 42.8653C81.0641 42.8653 80.4575 42.6264 79.9968 42.1966C79.7684 41.9706 79.5895 41.6996 79.4713 41.4008C79.3532 41.102 79.2984 40.7819 79.3104 40.4608C79.2976 40.1428 79.3522 39.8256 79.4705 39.53C79.5887 39.2345 79.7681 38.9672 79.9968 38.7457C80.4619 38.3249 81.0668 38.0918 81.6941 38.0918C82.3214 38.0918 82.9264 38.3249 83.3915 38.7457H83.4063ZM82.6904 41.4911C82.8246 41.3555 82.9296 41.1939 82.9989 41.0162C83.0682 40.8385 83.1003 40.6485 83.0934 40.4579C83.0992 40.274 83.0671 40.0909 82.9991 39.92C82.931 39.749 82.8285 39.594 82.698 39.4644C82.5674 39.3348 82.4116 39.2334 82.2401 39.1667C82.0687 39.0999 81.8853 39.0692 81.7015 39.0764C81.5208 39.0723 81.3411 39.104 81.1726 39.1696C81.0042 39.2352 80.8504 39.3334 80.72 39.4586C80.587 39.5879 80.4826 39.7437 80.4135 39.9158C80.3443 40.0879 80.312 40.2725 80.3185 40.4579C80.3116 40.6484 80.3437 40.8382 80.4127 41.0159C80.4817 41.1935 80.5863 41.3552 80.72 41.4911C80.9865 41.7424 81.3389 41.8823 81.7052 41.8823C82.0715 41.8823 82.4239 41.7424 82.6904 41.4911V41.4911Z" fill="#60269E"/>
<path d="M86.2908 40.7852C85.3403 40.521 84.9625 40.0472 85.0259 39.296C85.041 39.1234 85.0957 38.9565 85.1858 38.8086C85.2759 38.6606 85.399 38.5354 85.5455 38.4428C85.8705 38.2074 86.263 38.0837 86.6643 38.0901C87.5661 38.0901 88.2879 38.5329 88.3307 39.4436H87.3772C87.3373 39.1188 87.0539 38.9535 86.71 38.9535C86.4458 38.9535 86.1521 39.051 86.0635 39.2074C86.0255 39.2683 86.002 39.3371 85.9951 39.4086C85.9882 39.4801 85.998 39.5522 86.0237 39.6192C86.0724 39.7668 86.2599 39.8834 86.5831 39.972L87.2886 40.1491C88.0827 40.3454 88.4842 40.7852 88.4842 41.4775C88.4842 42.3409 87.7299 42.8605 86.6613 42.8605C86.2223 42.8657 85.7941 42.7239 85.4451 42.4575C85.2753 42.3297 85.1381 42.1637 85.0444 41.9729C84.9508 41.7821 84.9035 41.5719 84.9064 41.3594H85.8377C85.8864 41.7623 86.22 42.0162 86.7395 42.0162C87.2104 42.0162 87.5528 41.8111 87.5528 41.4671C87.5528 41.2029 87.3373 41.0244 86.9152 40.9284L86.2908 40.7852Z" fill="#60269E"/>
</g>
<defs>
<clipPath id="clip0_1859_15991">
<rect width="122.023" height="45" fill="white"/>
</clipPath>
</defs>
</svg>
