<svg width="123" height="45" viewBox="0 0 123 45" fill="none" xmlns="http://www.w3.org/2000/svg">
<g clip-path="url(#clip0_1859_15913)">
<path d="M121.877 9.4383C121.774 9.17988 121.619 8.94521 121.423 8.74874C121.226 8.55227 120.991 8.39815 120.733 8.29588C120.298 8.12453 119.817 8.10821 119.372 8.24966C118.926 8.39112 118.543 8.68171 118.286 9.07255C118.03 9.4634 117.916 9.93063 117.964 10.3956C118.011 10.8606 118.218 11.295 118.548 11.6257C118.829 11.9054 119.185 12.0972 119.573 12.1777C119.961 12.2581 120.364 12.2238 120.733 12.0788C120.981 11.9805 121.208 11.8342 121.4 11.6483C121.591 11.4624 121.745 11.2405 121.851 10.9953C121.957 10.75 122.014 10.4863 122.018 10.2192C122.022 9.95203 121.973 9.68668 121.875 9.4383M121.539 10.6619C121.475 10.8749 121.368 11.0721 121.223 11.2405C121.079 11.4096 120.902 11.5477 120.703 11.6464C120.518 11.7373 120.318 11.7919 120.113 11.8073C119.908 11.8235 119.702 11.8014 119.506 11.7423C119.294 11.6773 119.097 11.5693 118.929 11.425C118.759 11.2822 118.62 11.1052 118.523 10.9054C118.431 10.7209 118.376 10.5204 118.361 10.315C118.327 9.88634 118.464 9.46168 118.743 9.13424C118.887 8.96551 119.065 8.82791 119.264 8.72982C119.448 8.63782 119.649 8.58314 119.854 8.56894C120.059 8.5514 120.265 8.57345 120.461 8.63388C120.673 8.69929 120.869 8.80672 121.038 8.94974C121.208 9.09342 121.346 9.27085 121.444 9.47077C121.626 9.84179 121.66 10.2683 121.539 10.6634" fill="white"/>
<path d="M120.803 11.0465L120.391 10.4561C120.391 10.4561 120.391 10.4457 120.391 10.4428C120.511 10.3799 120.606 10.2787 120.662 10.1553C120.718 10.0319 120.731 9.89335 120.698 9.76178C120.666 9.63022 120.591 9.51317 120.485 9.42928C120.379 9.3454 120.247 9.29949 120.112 9.29888H119.294C119.291 9.29868 119.289 9.29903 119.286 9.2999C119.284 9.30077 119.282 9.30215 119.28 9.30396C119.278 9.30576 119.276 9.30794 119.275 9.31037C119.274 9.3128 119.273 9.31542 119.273 9.31807V11.0583C119.273 11.0609 119.274 11.0635 119.275 11.066C119.276 11.0684 119.278 11.0706 119.28 11.0724C119.282 11.0742 119.284 11.0756 119.286 11.0764C119.289 11.0773 119.291 11.0777 119.294 11.0775H119.653C119.658 11.0775 119.663 11.0754 119.666 11.0718C119.67 11.0682 119.672 11.0634 119.672 11.0583V10.5284C119.672 10.5259 119.672 10.5235 119.673 10.5212C119.674 10.5188 119.675 10.5167 119.677 10.5149C119.678 10.5131 119.68 10.5117 119.683 10.5107C119.685 10.5097 119.687 10.5092 119.69 10.5092H119.936C119.939 10.5081 119.941 10.5075 119.944 10.5075C119.947 10.5075 119.95 10.5081 119.952 10.5092L120.336 11.0612C120.338 11.0639 120.34 11.066 120.343 11.0676C120.346 11.0691 120.349 11.07 120.352 11.0701H120.795C120.799 11.07 120.802 11.0689 120.805 11.067C120.808 11.0651 120.811 11.0624 120.812 11.0591C120.814 11.0559 120.814 11.0523 120.814 11.0488C120.814 11.0453 120.812 11.0419 120.81 11.0391M120.245 10.0812C120.196 10.1302 120.129 10.1578 120.06 10.1579H119.684V9.64131H120.06C120.129 9.64144 120.196 9.66904 120.245 9.71807C120.294 9.76754 120.321 9.83438 120.321 9.90404C120.321 9.9737 120.294 10.0405 120.245 10.09" fill="white"/>
<path d="M90.9441 22.8225C90.9382 24.2381 91.3388 25.6257 92.0985 26.8202C92.8581 28.0148 93.9448 28.9661 95.2294 29.561C96.5139 30.1559 97.9423 30.3695 99.3446 30.1763C100.747 29.9831 102.064 29.3913 103.14 28.4711L103.164 28.452L103.537 28.1346L105.502 26.4697C105.531 26.4445 105.568 26.4285 105.606 26.4236C105.645 26.4186 105.684 26.425 105.719 26.4418C105.754 26.4587 105.783 26.4854 105.804 26.5186C105.824 26.5519 105.834 26.5903 105.832 26.6291L105.726 29.6239C105.686 30.7404 105.281 31.8131 104.574 32.6777C103.866 33.5423 102.895 34.1513 101.808 34.4115C100.722 34.6717 99.58 34.5687 98.5575 34.1183C97.5351 33.6679 96.6884 32.8949 96.147 31.9176C95.9824 31.622 95.8484 31.3105 95.747 30.9877C95.7009 30.8422 95.601 30.7196 95.4678 30.6451C95.3345 30.5705 95.1779 30.5495 95.0297 30.5862L90.3331 31.7331C90.2546 31.7524 90.1809 31.7873 90.1162 31.8358C90.0516 31.8842 89.9973 31.9451 89.9567 32.0149C89.9161 32.0847 89.8899 32.162 89.8798 32.2422C89.8696 32.3223 89.8757 32.4037 89.8977 32.4814C89.9961 32.8327 90.1127 33.1771 90.2475 33.5146C90.8315 34.9969 91.7266 36.3367 92.8724 37.4438C94.0182 38.5509 95.3879 39.3994 96.8894 39.9322C98.8246 40.6193 100.897 40.8283 102.93 40.5416C104.964 40.2549 106.898 39.4808 108.567 38.2855C110.237 37.0901 111.593 35.5088 112.52 33.6763C113.447 31.8439 113.917 29.8145 113.89 27.7612V10.7873C113.89 10.7082 113.875 10.6299 113.845 10.5567C113.815 10.4836 113.77 10.4171 113.715 10.361C113.659 10.305 113.592 10.2605 113.52 10.23C113.447 10.1996 113.368 10.1838 113.289 10.1836H106.33C106.17 10.184 106.018 10.2476 105.905 10.3605C105.792 10.4734 105.729 10.6264 105.729 10.7858V21.3421C105.729 21.4545 105.697 21.5646 105.638 21.66C105.578 21.7555 105.493 21.8324 105.393 21.8823L103.63 22.7458L103.174 22.9746C102.744 23.1849 102.268 23.2823 101.79 23.2578C101.311 23.2332 100.847 23.0874 100.441 22.8341C100.035 22.5808 99.6998 22.2283 99.4673 21.8098C99.2349 21.3913 99.1127 20.9205 99.1123 20.4418V10.7873C99.1125 10.7076 99.0968 10.6286 99.0663 10.555C99.0358 10.4814 98.9909 10.4146 98.9343 10.3584C98.8778 10.3023 98.8106 10.2579 98.7368 10.2279C98.6629 10.1979 98.5839 10.1828 98.5042 10.1836H91.5463C91.3866 10.1836 91.2335 10.2471 91.1205 10.36C91.0076 10.4729 90.9441 10.6261 90.9441 10.7858V22.8211V22.8225Z" fill="white"/>
<path d="M87.8114 2.16602H80.8521C80.6926 2.16641 80.5399 2.23003 80.4272 2.34292C80.3146 2.45581 80.2514 2.60876 80.2514 2.76822V11.9194C80.2508 11.9578 80.2393 11.9952 80.2181 12.0272C80.1969 12.0592 80.167 12.0845 80.1319 12.1001C80.0968 12.1156 80.0579 12.1207 80.02 12.1149C79.9821 12.109 79.9466 12.0924 79.9178 12.067L79.5872 11.7718C79.416 11.6212 79.2388 11.478 79.0558 11.3422C75.8234 8.94672 71.8781 8.94672 68.6457 11.3422C67.6284 12.1145 66.7753 13.082 66.1365 14.188C65.4946 15.2913 65.0238 16.4857 64.7402 17.7303C64.7343 17.7514 64.7217 17.7701 64.7042 17.7833C64.6868 17.7966 64.6654 17.8037 64.6435 17.8037C64.6216 17.8037 64.6003 17.7966 64.5828 17.7833C64.5654 17.7701 64.5527 17.7514 64.5468 17.7303C63.7124 15.0204 61.8681 12.7349 59.3956 11.3467C57.2982 10.1682 54.9329 9.54923 52.5271 9.54923C50.1213 9.54923 47.756 10.1682 45.6586 11.3467C43.12 12.7706 41.246 15.139 40.4439 17.937C40.4376 17.9575 40.4249 17.9755 40.4076 17.9882C40.3904 18.001 40.3695 18.0079 40.348 18.0079C40.3265 18.0079 40.3056 18.001 40.2883 17.9882C40.2711 17.9755 40.2584 17.9575 40.252 17.937C39.45 15.1407 37.5779 12.7733 35.0418 11.3482C32.944 10.1692 30.5782 9.54987 28.1718 9.54987C25.7654 9.54987 23.3996 10.1692 21.3018 11.3482C19.593 12.3084 18.1703 13.7059 17.1796 15.3972C16.1889 17.0886 15.6659 19.0129 15.6641 20.9731C15.6623 22.9332 16.1818 24.8586 17.1694 26.5517C18.1569 28.2449 19.5771 29.6449 21.2841 30.6084L21.321 30.629C23.4171 31.8027 25.7797 32.4181 28.182 32.4163C30.5844 32.4145 32.946 31.7955 35.0403 30.6187C37.5769 29.1938 39.4495 26.8264 40.252 24.0299C40.2574 24.0085 40.2697 23.9895 40.2871 23.9759C40.3045 23.9623 40.3259 23.955 40.348 23.955C40.37 23.955 40.3915 23.9623 40.4088 23.9759C40.4262 23.9895 40.4386 24.0085 40.4439 24.0299C41.2458 26.8267 43.1186 29.1944 45.6556 30.6187C47.753 31.7971 50.1184 32.4161 52.5242 32.4161C54.93 32.4161 57.2953 31.7971 59.3927 30.6187C61.8675 29.2287 63.7125 26.9397 64.5454 24.2262C64.552 24.2052 64.5653 24.1871 64.5833 24.1744C64.6013 24.1618 64.6229 24.1554 64.6449 24.1563C64.6668 24.1571 64.6879 24.1651 64.7048 24.1791C64.7218 24.193 64.7337 24.2122 64.7387 24.2336C65.0219 25.4783 65.4927 26.6727 66.135 27.7759C66.7725 28.8833 67.6257 29.8515 68.6442 30.6231C71.8766 33.0201 75.8219 33.0201 79.0544 30.6231C79.2374 30.4873 79.4145 30.3442 79.5857 30.1936C79.6964 30.0977 79.8071 30.0017 79.9163 29.8984C79.9451 29.873 79.9806 29.8564 80.0185 29.8505C80.0565 29.8446 80.0953 29.8498 80.1304 29.8653C80.1655 29.8808 80.1954 29.9061 80.2166 29.9382C80.2378 29.9702 80.2494 30.0076 80.2499 30.046V31.1737C80.2499 31.3331 80.3131 31.4861 80.4258 31.599C80.5384 31.7119 80.6912 31.7755 80.8506 31.7759H87.8099C87.9694 31.7755 88.1222 31.7119 88.2348 31.599C88.3474 31.4861 88.4107 31.3331 88.4107 31.1737V2.76822C88.4107 2.60902 88.3476 2.45629 88.2353 2.34344C88.123 2.23059 87.9706 2.1668 87.8114 2.16602ZM32.3142 22.7708C32.2655 22.9184 32.2094 23.066 32.1474 23.2136C32.0823 23.3596 32.0093 23.502 31.9289 23.6402C31.8475 23.7808 31.7583 23.9168 31.6618 24.0476C31.3676 24.4439 31.01 24.789 30.6035 25.069C30.4503 25.1737 30.2911 25.2693 30.1267 25.3553C29.9791 25.4276 29.8315 25.494 29.684 25.5516C29.5391 25.6087 29.3913 25.6579 29.2412 25.6992C28.5417 25.8911 27.8034 25.8911 27.1039 25.6992C26.9537 25.6582 26.8059 25.6089 26.6611 25.5516C26.3383 25.427 26.0311 25.2651 25.746 25.069C25.6111 24.9773 25.4811 24.8788 25.3563 24.7738C25.1081 24.5586 24.8839 24.317 24.6877 24.0535C24.5912 23.9227 24.502 23.7867 24.4206 23.6461C24.3406 23.5079 24.2682 23.3655 24.2036 23.2195C24.1398 23.0752 24.0841 22.9273 24.0368 22.7768C23.6633 21.6139 23.6633 20.3633 24.0368 19.2004C24.0839 19.0498 24.1396 18.9019 24.2036 18.7576C24.3339 18.4627 24.4963 18.1831 24.6877 17.9237C24.7852 17.7918 24.8901 17.6656 25.0021 17.5458C25.1139 17.4254 25.2322 17.3111 25.3563 17.2034C25.4808 17.098 25.6109 16.9995 25.746 16.9082C26.0311 16.7121 26.3383 16.5501 26.6611 16.4256C26.8059 16.3683 26.9537 16.319 27.1039 16.278C27.8034 16.0861 28.5417 16.0861 29.2412 16.278C29.3913 16.3192 29.5391 16.3685 29.684 16.4256C29.8315 16.4831 29.9791 16.5495 30.1267 16.6219C30.2911 16.7079 30.4503 16.8035 30.6035 16.9082C30.7389 16.9991 30.869 17.0977 30.9932 17.2034C31.1173 17.3111 31.2356 17.4254 31.3474 17.5458C31.4594 17.6656 31.5643 17.7918 31.6618 17.9237C31.853 18.1835 32.0158 18.4631 32.1474 18.7576C32.2094 18.9052 32.2655 19.0528 32.3142 19.2004C32.6844 20.3618 32.6839 21.6097 32.3127 22.7708H32.3142ZM56.668 22.7708C56.6207 22.9214 56.565 23.0693 56.5012 23.2136C56.4367 23.3599 56.3638 23.5023 56.2828 23.6402C56.2013 23.7808 56.1121 23.9168 56.0156 24.0476C55.9182 24.1791 55.8138 24.3052 55.7027 24.4254C55.4783 24.6663 55.2284 24.8821 54.9573 25.069C54.8046 25.1743 54.6453 25.2699 54.4806 25.3553C54.3365 25.4284 54.1887 25.4939 54.0378 25.5516C53.8929 25.6087 53.7451 25.6579 53.595 25.6992C52.896 25.8911 52.1582 25.8911 51.4592 25.6992C51.3091 25.6579 51.1613 25.6087 51.0164 25.5516C50.8655 25.4939 50.7177 25.4284 50.5736 25.3553C50.4089 25.2699 50.2497 25.1743 50.0969 25.069C49.9615 24.9781 49.8314 24.8795 49.7072 24.7738C49.5819 24.6669 49.4631 24.5525 49.3515 24.4313C49.2405 24.3111 49.136 24.185 49.0386 24.0535C48.8474 23.7937 48.6846 23.5141 48.553 23.2195C48.4892 23.0752 48.4336 22.9273 48.3862 22.7768C48.0142 21.6137 48.0142 20.3635 48.3862 19.2004C48.4333 19.0498 48.489 18.9019 48.553 18.7576C48.6846 18.4631 48.8474 18.1835 49.0386 17.9237C49.136 17.7922 49.2405 17.666 49.3515 17.5458C49.4635 17.425 49.5823 17.3107 49.7072 17.2034C49.8314 17.0977 49.9615 16.9991 50.0969 16.9082C50.2497 16.8029 50.4089 16.7072 50.5736 16.6219C50.7177 16.5488 50.8655 16.4832 51.0164 16.4256C51.1613 16.3685 51.3091 16.3192 51.4592 16.278C52.1582 16.0861 52.896 16.0861 53.595 16.278C53.7451 16.3192 53.8929 16.3685 54.0378 16.4256C54.1887 16.4832 54.3365 16.5488 54.4806 16.6219C54.6453 16.7072 54.8046 16.8029 54.9573 16.9082C55.0927 16.9991 55.2228 17.0977 55.347 17.2034C55.4716 17.3111 55.5904 17.4254 55.7027 17.5458C55.8138 17.666 55.9182 17.7922 56.0156 17.9237C56.1118 18.0547 56.201 18.1907 56.2828 18.3311C56.3635 18.4691 56.4364 18.6115 56.5012 18.7576C56.5652 18.9019 56.6209 19.0498 56.668 19.2004C57.0378 20.362 57.0367 21.6099 56.6651 22.7708H56.668ZM80.2543 24.1479C80.2533 24.204 80.2406 24.2592 80.217 24.3101C80.1933 24.3609 80.1593 24.4062 80.1171 24.4431L79.782 24.7383L79.7584 24.759C79.6337 24.8641 79.5036 24.9626 79.3687 25.0542C79.0836 25.2503 78.7765 25.4123 78.4536 25.5368C78.3088 25.5941 78.161 25.6434 78.0108 25.6844C77.3118 25.8763 76.5741 25.8763 75.8751 25.6844C75.7249 25.6432 75.5771 25.5939 75.4323 25.5368C75.2847 25.4793 75.1371 25.4129 74.9895 25.3405C74.8249 25.2549 74.6657 25.1592 74.5127 25.0542C74.2417 24.8673 73.9918 24.6515 73.7674 24.4107C73.6563 24.2905 73.5518 24.1643 73.4544 24.0328C73.3579 23.9021 73.2687 23.7661 73.1873 23.6254C73.1063 23.4876 73.0334 23.3452 72.9688 23.1989C72.9051 23.0545 72.8494 22.9067 72.8021 22.7561C72.4301 21.593 72.4301 20.3428 72.8021 19.1798C72.8492 19.0291 72.9049 18.8813 72.9688 18.737C73.0337 18.5908 73.1066 18.4484 73.1873 18.3104C73.2691 18.17 73.3583 18.034 73.4544 17.903C73.5518 17.7715 73.6563 17.6454 73.7674 17.5252C73.8797 17.4047 73.9984 17.2904 74.1231 17.1827C74.2472 17.077 74.3773 16.9784 74.5127 16.8875C74.6655 16.7822 74.8247 16.6866 74.9895 16.6012C75.1336 16.5281 75.2814 16.4626 75.4323 16.4049C75.5771 16.3479 75.7249 16.2986 75.8751 16.2573C76.5741 16.0654 77.3118 16.0654 78.0108 16.2573C78.161 16.2984 78.3088 16.3476 78.4536 16.4049C78.7765 16.5295 79.0836 16.6915 79.3687 16.8875C79.5036 16.9792 79.6337 17.0777 79.7584 17.1827C79.7584 17.1827 79.7746 17.196 79.782 17.2049L80.1171 17.5001C80.1593 17.537 80.1933 17.5823 80.217 17.6331C80.2406 17.684 80.2533 17.7392 80.2543 17.7953V24.1479Z" fill="white"/>
<path d="M16.5842 1.42441C15.3413 0.711414 13.9682 0.254262 12.5459 0.0798658C11.1237 -0.0945301 9.68085 0.0173542 8.30245 0.408933C6.77776 0.842623 5.43603 1.76156 4.48063 3.02646C3.52524 4.29136 3.00826 5.83325 3.00807 7.41841V10.2597C3.00808 10.2862 3.00278 10.3125 2.99249 10.337C2.9822 10.3615 2.96712 10.3836 2.94815 10.4022C2.92918 10.4207 2.90668 10.4353 2.882 10.4451C2.85731 10.4548 2.83092 10.4595 2.80438 10.459H0.602204C0.44249 10.459 0.289317 10.5224 0.176382 10.6353C0.0634463 10.7483 0 10.9014 0 11.0612L0 15.498C0 15.6577 0.0634463 15.8109 0.176382 15.9238C0.289317 16.0367 0.44249 16.1002 0.602204 16.1002H2.80438C2.85762 16.1002 2.90868 16.1213 2.94632 16.159C2.98397 16.1966 3.00512 16.2477 3.00512 16.3009V31.1789C3.00551 31.3384 3.06913 31.4912 3.18202 31.6038C3.29491 31.7164 3.44786 31.7796 3.60732 31.7796H10.5681C10.7276 31.7796 10.8805 31.7164 10.9934 31.6038C11.1063 31.4912 11.1699 31.3384 11.1703 31.1789V16.3068C11.1703 16.2546 11.1906 16.2044 11.227 16.1669C11.2634 16.1295 11.3129 16.1076 11.3651 16.1061H15.0551C15.2148 16.1061 15.368 16.0426 15.4809 15.9297C15.5939 15.8168 15.6573 15.6636 15.6573 15.5039V11.0612C15.6573 10.9014 15.5939 10.7483 15.4809 10.6353C15.368 10.5224 15.2148 10.459 15.0551 10.459H11.3651C11.3388 10.4591 11.3128 10.4541 11.2884 10.4442C11.2641 10.4343 11.2419 10.4196 11.2233 10.4011C11.2046 10.3826 11.1898 10.3606 11.1797 10.3363C11.1696 10.312 11.1644 10.286 11.1644 10.2597V8.64791C11.164 8.26951 11.2497 7.89597 11.415 7.55558C11.5803 7.2152 11.8209 6.91689 12.1186 6.68323C12.4162 6.44957 12.7631 6.2867 13.133 6.20694C13.5029 6.12718 13.8862 6.13262 14.2536 6.22286L15.7134 6.57562C15.7965 6.59564 15.883 6.59767 15.967 6.58158C16.051 6.56549 16.1306 6.53165 16.2004 6.48232C16.2703 6.433 16.3288 6.36933 16.3721 6.29556C16.4154 6.2218 16.4424 6.13965 16.4514 6.0546L16.8809 2.01038C16.8937 1.89446 16.8724 1.77732 16.8197 1.67326C16.7671 1.56921 16.6852 1.48274 16.5842 1.42441Z" fill="white"/>
<path d="M4.22052 42.7658H3.21094V35.6973H4.22052V38.8441C4.49505 38.3644 5.09283 38.0898 5.75997 38.0898C6.06119 38.082 6.36079 38.1363 6.64012 38.2493C6.91945 38.3623 7.17252 38.5316 7.38356 38.7467C7.60694 38.9754 7.78132 39.2473 7.89602 39.5458C8.01073 39.8442 8.06337 40.1629 8.05071 40.4824C8.06207 40.7996 8.00775 41.1156 7.89117 41.4108C7.77458 41.7059 7.59825 41.9738 7.37323 42.1975C7.1628 42.4141 6.91009 42.5851 6.63078 42.6999C6.35147 42.8146 6.05155 42.8707 5.74964 42.8647C5.11201 42.8647 4.49505 42.5798 4.22052 42.1001V42.7658ZM5.63304 41.8802C5.81524 41.8825 5.99602 41.8478 6.16446 41.7783C6.3329 41.7088 6.48552 41.6059 6.6131 41.4758C6.74563 41.3418 6.84956 41.1824 6.91857 41.007C6.98759 40.8317 7.02025 40.6442 7.01456 40.4559C7.02153 40.2721 6.99064 40.0888 6.92381 39.9175C6.85698 39.7462 6.75564 39.5904 6.62609 39.4599C6.49653 39.3294 6.34153 39.2269 6.1707 39.1588C5.99987 39.0907 5.81686 39.0584 5.63304 39.064C5.26946 39.0612 4.91867 39.1981 4.65298 39.4463C4.51169 39.5724 4.40044 39.7285 4.32739 39.9032C4.25434 40.0779 4.22135 40.2667 4.23085 40.4559C4.22113 40.6437 4.25055 40.8316 4.31724 41.0074C4.38394 41.1833 4.48645 41.3435 4.61828 41.4776C4.75011 41.6118 4.90839 41.7172 5.08307 41.787C5.25775 41.8568 5.44503 41.8895 5.63304 41.8831V41.8802Z" fill="white"/>
<path d="M13.208 38.1875L10.3741 45.0007H9.31579L10.3062 42.5505L8.49219 38.1875H9.57114L10.8449 41.3284L12.129 38.1905L13.208 38.1875Z" fill="white"/>
<path d="M15.5859 36.9804V36.0137H20.625V36.9834H18.6353V42.7678H17.5756V36.9804H15.5859Z" fill="white"/>
<path d="M24.5215 38.7457C24.752 38.9664 24.9332 39.2332 25.0532 39.5288C25.1733 39.8244 25.2295 40.142 25.2181 40.4608C25.2292 40.7835 25.172 41.1049 25.0504 41.4039C24.9289 41.703 24.7456 41.9731 24.5126 42.1966C24.0519 42.6264 23.4453 42.8653 22.8152 42.8653C22.1852 42.8653 21.5786 42.6264 21.1178 42.1966C20.8895 41.9706 20.7106 41.6996 20.5924 41.4008C20.4743 41.102 20.4195 40.7819 20.4315 40.4608C20.4187 40.1428 20.4733 39.8256 20.5915 39.53C20.7098 39.2345 20.8892 38.9672 21.1178 38.7457C21.583 38.3249 22.1879 38.0918 22.8152 38.0918C23.4425 38.0918 24.0475 38.3249 24.5126 38.7457H24.5215ZM23.8071 41.4911C23.9408 41.3552 24.0454 41.1935 24.1144 41.0159C24.1834 40.8382 24.2155 40.6484 24.2086 40.4579C24.2144 40.274 24.1823 40.0909 24.1143 39.92C24.0462 39.749 23.9437 39.594 23.8132 39.4644C23.6826 39.3348 23.5267 39.2334 23.3553 39.1667C23.1839 39.0999 23.0005 39.0692 22.8167 39.0764C22.6362 39.0722 22.4566 39.1038 22.2884 39.1694C22.1202 39.2351 21.9667 39.3333 21.8367 39.4586C21.7034 39.5878 21.5987 39.7435 21.5293 39.9156C21.4599 40.0877 21.4273 40.2724 21.4337 40.4579C21.4267 40.6485 21.4589 40.8385 21.5282 41.0162C21.5975 41.1939 21.7025 41.3555 21.8367 41.4911C22.1032 41.7424 22.4556 41.8823 22.8219 41.8823C23.1882 41.8823 23.5406 41.7424 23.8071 41.4911Z" fill="white"/>
<path d="M29.8861 42.7658V42.1001C29.6116 42.5798 29.0005 42.8647 28.3378 42.8647C28.0366 42.8722 27.7371 42.8177 27.4578 42.7047C27.1786 42.5918 26.9255 42.4226 26.7142 42.2079C26.492 41.9805 26.3183 41.7103 26.2039 41.4136C26.0894 41.117 26.0366 40.8001 26.0485 40.4824C26.0485 39.7666 26.264 39.1983 26.7039 38.757C26.9152 38.5416 27.1681 38.3714 27.4472 38.2567C27.7263 38.142 28.0258 38.0853 28.3275 38.0898C28.9946 38.0898 29.6012 38.3644 29.8758 38.8441V35.6973H30.8765V42.7658H29.8861ZM29.4433 39.4522C29.1768 39.2043 28.8257 39.0675 28.4618 39.0699C28.2782 39.0636 28.0952 39.0954 27.9246 39.1633C27.7539 39.2313 27.5991 39.3339 27.4701 39.4647C27.3411 39.5955 27.2407 39.7517 27.1751 39.9233C27.1095 40.0949 27.0802 40.2783 27.0891 40.4618C27.0807 40.6516 27.1112 40.8412 27.1787 41.0189C27.2462 41.1966 27.3493 41.3586 27.4817 41.495C27.61 41.6232 27.763 41.724 27.9315 41.7913C28.1 41.8585 28.2804 41.8908 28.4618 41.8861C28.6493 41.8924 28.836 41.8598 29.0103 41.7904C29.1845 41.7209 29.3425 41.6161 29.4743 41.4826C29.606 41.3491 29.7087 41.1897 29.7757 41.0145C29.8428 40.8393 29.8728 40.6521 29.864 40.4647C29.8741 40.2755 29.8419 40.0864 29.7697 39.9112C29.6974 39.736 29.5869 39.5792 29.4463 39.4522H29.4433Z" fill="white"/>
<path d="M36.0933 38.7466C36.3233 38.9675 36.504 39.2345 36.6238 39.53C36.7436 39.8255 36.7997 40.143 36.7885 40.4617C36.7995 40.7844 36.7423 41.1057 36.6208 41.4048C36.4992 41.7039 36.3159 41.974 36.0829 42.1975C35.6222 42.6272 35.0156 42.8662 34.3855 42.8662C33.7555 42.8662 33.1489 42.6272 32.6882 42.1975C32.4598 41.9715 32.2809 41.7005 32.1628 41.4017C32.0446 41.1029 31.9898 40.7828 32.0018 40.4617C31.989 40.1436 32.0436 39.8264 32.1619 39.5309C32.2801 39.2353 32.4595 38.9681 32.6882 38.7466C33.1539 38.324 33.7603 38.0898 34.3892 38.0898C35.0182 38.0898 35.6246 38.324 36.0903 38.7466H36.0933ZM35.3774 41.492C35.5111 41.3561 35.6157 41.1944 35.6847 41.0168C35.7537 40.8391 35.7858 40.6492 35.7789 40.4588C35.7847 40.2749 35.7526 40.0918 35.6846 39.9209C35.6165 39.7499 35.514 39.5948 35.3835 39.4652C35.2529 39.3356 35.0971 39.2343 34.9256 39.1675C34.7542 39.1008 34.5709 39.0701 34.387 39.0772C34.2065 39.0731 34.027 39.1047 33.8587 39.1703C33.6905 39.2359 33.537 39.3342 33.407 39.4595C33.274 39.5888 33.1696 39.7445 33.1004 39.9166C33.0313 40.0887 32.9989 40.2734 33.0055 40.4588C32.9983 40.6493 33.0301 40.8393 33.0992 41.017C33.1682 41.1947 33.273 41.3563 33.407 41.492C33.6735 41.7432 34.0259 41.8832 34.3922 41.8832C34.7585 41.8832 35.1109 41.7432 35.3774 41.492Z" fill="white"/>
<path d="M38.9779 40.7852C38.0274 40.521 37.6495 40.0472 37.713 39.296C37.728 39.1234 37.7827 38.9565 37.8729 38.8086C37.963 38.6606 38.0861 38.5354 38.2325 38.4428C38.5576 38.2074 38.9501 38.0837 39.3513 38.0901C40.2532 38.0901 40.9749 38.5329 41.0177 39.4436H40.0569C40.017 39.1188 39.7336 38.9535 39.3897 38.9535C39.1255 38.9535 38.8318 39.051 38.7432 39.2074C38.7055 39.2684 38.6822 39.3373 38.6753 39.4087C38.6684 39.4801 38.678 39.5521 38.7034 39.6192C38.7521 39.7668 38.9395 39.8834 39.2628 39.972L39.9683 40.1491C40.7624 40.3454 41.1639 40.7852 41.1639 41.4775C41.1639 42.3409 40.4096 42.8605 39.341 42.8605C38.902 42.8657 38.4738 42.7239 38.1248 42.4575C37.955 42.3297 37.8177 42.1637 37.7241 41.9729C37.6305 41.7821 37.5832 41.5719 37.5861 41.3594H38.5218C38.5705 41.7623 38.9041 42.0162 39.4237 42.0162C39.8945 42.0162 40.2369 41.8111 40.2369 41.4671C40.2369 41.2029 40.0214 41.0244 39.6008 40.9284L38.9779 40.7852Z" fill="white"/>
<path d="M50.5476 41.6235C50.2461 41.9929 49.87 42.2947 49.4441 42.5091C49.0181 42.7235 48.5517 42.8458 48.0753 42.8679C47.5989 42.8901 47.1232 42.8116 46.6792 42.6376C46.2352 42.4636 45.8328 42.198 45.4983 41.8582C44.8629 41.2005 44.5078 40.3217 44.5078 39.4073C44.5078 38.4928 44.8629 37.6141 45.4983 36.9564C45.8092 36.6278 46.1851 36.3676 46.6021 36.1923C47.0191 36.0169 47.4681 35.9303 47.9204 35.938C48.418 35.9328 48.9105 36.0392 49.3615 36.2494C49.8126 36.4597 50.2109 36.7683 50.5269 37.1527L49.724 37.78C49.5038 37.5156 49.228 37.303 48.9162 37.1573C48.6045 37.0116 48.2645 36.9365 47.9204 36.9372C47.6039 36.9327 47.29 36.995 46.9993 37.1201C46.7085 37.2453 46.4475 37.4304 46.2333 37.6634C45.7932 38.1378 45.5487 38.7609 45.5487 39.408C45.5487 40.0551 45.7932 40.6783 46.2333 41.1526C46.448 41.3843 46.7094 41.5678 47.0002 41.6912C47.291 41.8146 47.6045 41.875 47.9204 41.8685C48.2729 41.8778 48.6225 41.8021 48.9398 41.648C49.257 41.4939 49.5326 41.2658 49.7432 40.9829L50.5476 41.6235Z" fill="white"/>
<path d="M55.2573 38.7466C55.4873 38.9675 55.6681 39.2345 55.7879 39.53C55.9077 39.8255 55.9638 40.143 55.9525 40.4617C55.9635 40.7844 55.9064 41.1057 55.7848 41.4048C55.6632 41.7039 55.48 41.974 55.247 42.1975C54.7863 42.6272 54.1797 42.8662 53.5496 42.8662C52.9196 42.8662 52.313 42.6272 51.8522 42.1975C51.6239 41.9715 51.445 41.7005 51.3268 41.4017C51.2087 41.1029 51.1539 40.7828 51.1659 40.4617C51.1531 40.1436 51.2076 39.8264 51.3259 39.5309C51.4442 39.2353 51.6235 38.9681 51.8522 38.7466C52.318 38.324 52.9244 38.0898 53.5533 38.0898C54.1822 38.0898 54.7886 38.324 55.2544 38.7466H55.2573ZM54.5415 41.492C54.6752 41.3561 54.7797 41.1944 54.8488 41.0168C54.9178 40.8391 54.9498 40.6492 54.9429 40.4588C54.9488 40.2749 54.9167 40.0918 54.8486 39.9209C54.7806 39.7499 54.6781 39.5948 54.5475 39.4652C54.417 39.3356 54.2611 39.2343 54.0897 39.1675C53.9183 39.1008 53.7349 39.0701 53.5511 39.0772C53.3706 39.0731 53.191 39.1047 53.0228 39.1703C52.8546 39.2359 52.701 39.3342 52.571 39.4595C52.4381 39.5888 52.3336 39.7445 52.2645 39.9166C52.1953 40.0887 52.163 40.2734 52.1696 40.4588C52.1627 40.6492 52.1947 40.8391 52.2637 41.0168C52.3328 41.1944 52.4373 41.3561 52.571 41.492C52.8375 41.7432 53.19 41.8832 53.5563 41.8832C53.9225 41.8832 54.275 41.7432 54.5415 41.492Z" fill="white"/>
<path d="M61.178 40.3057V42.7662H60.1669V40.198C60.1581 39.5013 59.7861 39.0807 59.2356 39.0807C58.5802 39.0807 58.0799 39.4718 58.0799 40.3057V42.7662H57.0703V38.1906H58.0799V38.877C58.2049 38.6049 58.4294 38.391 58.7072 38.2792C58.9622 38.1606 59.2393 38.0973 59.5205 38.0932C60.2171 38.0932 60.6973 38.3973 60.961 39.0054C61.1018 38.7207 61.3223 38.483 61.5955 38.3211C61.8688 38.1591 62.1831 38.08 62.5005 38.0932C63.6281 38.0932 64.2717 38.8312 64.2717 40.133V42.7692H63.2621V40.2172C63.2621 39.5116 62.8798 39.0807 62.2909 39.0807C61.6178 39.0807 61.178 39.5707 61.178 40.3057Z" fill="white"/>
<path d="M69.9759 40.8341H66.3391C66.4262 41.5396 66.9944 41.9809 67.7398 41.9809C67.9869 41.9908 68.2322 41.9352 68.4509 41.8199C68.6696 41.7045 68.854 41.5335 68.9855 41.3241L69.8091 41.6872C69.4165 42.4606 68.6033 42.868 67.6911 42.868C67.3757 42.8758 67.0621 42.8187 66.7698 42.7C66.4775 42.5814 66.2127 42.4038 65.992 42.1784C65.7713 41.953 65.5993 41.6845 65.4869 41.3898C65.3744 41.095 65.3239 40.7803 65.3384 40.4651C65.3384 39.7492 65.5642 39.181 66.0144 38.75C66.2353 38.5333 66.4976 38.3635 66.7858 38.2506C67.0739 38.1378 67.3818 38.0842 67.6911 38.0932C67.9962 38.0823 68.3002 38.1351 68.5838 38.2482C68.8674 38.3613 69.1244 38.5322 69.3383 38.75C69.7693 39.181 69.9848 39.7492 69.9848 40.4651C69.9848 40.6481 69.9848 40.7647 69.9759 40.8341ZM68.9944 40.0961C68.9073 39.3906 68.3878 38.9699 67.6911 38.9699C66.9944 38.9699 66.4262 39.4009 66.3391 40.0961H68.9944Z" fill="white"/>
<path d="M75.1624 40.3058V42.7662H74.1528V40.198C74.1425 39.5014 73.7705 39.0807 73.2214 39.0807C72.5646 39.0807 72.0643 39.4718 72.0643 40.3058V42.7662H71.0547V38.1907H72.0643V38.877C72.1901 38.6055 72.4143 38.3918 72.6916 38.2792C72.9466 38.1608 73.2237 38.0975 73.5048 38.0933C74.2015 38.0933 74.6822 38.3973 74.9469 39.0054C75.0876 38.7206 75.3079 38.4828 75.5812 38.3209C75.8545 38.1589 76.169 38.0799 76.4863 38.0933C77.6125 38.0933 78.2501 38.8313 78.2501 40.1331V42.7692H77.2406V40.2172C77.2406 39.5117 76.8583 39.0807 76.2694 39.0807C75.6037 39.0807 75.1624 39.5707 75.1624 40.3058Z" fill="white"/>
<path d="M83.4102 38.7457C83.6407 38.9664 83.8219 39.2332 83.942 39.5288C84.062 39.8244 84.1182 40.142 84.1069 40.4608C84.1171 40.7839 84.059 41.1056 83.9364 41.4047C83.8139 41.7038 83.6295 41.9737 83.3954 42.1966C82.9347 42.6264 82.3281 42.8653 81.698 42.8653C81.068 42.8653 80.4614 42.6264 80.0007 42.1966C79.7723 41.9706 79.5934 41.6996 79.4753 41.4008C79.3571 41.102 79.3023 40.7819 79.3143 40.4608C79.3015 40.1428 79.3561 39.8256 79.4744 39.53C79.5926 39.2345 79.772 38.9672 80.0007 38.7457C80.4658 38.3249 81.0707 38.0918 81.698 38.0918C82.3254 38.0918 82.9303 38.3249 83.3954 38.7457H83.4102ZM82.6943 41.4911C82.8285 41.3555 82.9335 41.1939 83.0028 41.0162C83.0721 40.8385 83.1042 40.6485 83.0973 40.4579C83.1031 40.274 83.071 40.0909 83.003 39.92C82.9349 39.749 82.8325 39.594 82.7019 39.4644C82.5713 39.3348 82.4155 39.2334 82.244 39.1667C82.0726 39.0999 81.8893 39.0692 81.7054 39.0764C81.5247 39.0723 81.345 39.104 81.1765 39.1696C81.0081 39.2352 80.8543 39.3334 80.7239 39.4586C80.5909 39.5879 80.4865 39.7437 80.4174 39.9158C80.3482 40.0879 80.3159 40.2725 80.3224 40.4579C80.3155 40.6484 80.3476 40.8382 80.4166 41.0159C80.4856 41.1935 80.5902 41.3552 80.7239 41.4911C80.9904 41.7424 81.3428 41.8823 81.7091 41.8823C82.0754 41.8823 82.4278 41.7424 82.6943 41.4911Z" fill="white"/>
<path d="M86.2908 40.7852C85.3403 40.521 84.9625 40.0472 85.0259 39.296C85.041 39.1234 85.0957 38.9565 85.1858 38.8086C85.2759 38.6606 85.399 38.5354 85.5455 38.4428C85.8705 38.2074 86.263 38.0837 86.6643 38.0901C87.5661 38.0901 88.2879 38.5329 88.3307 39.4436H87.3772C87.3373 39.1188 87.0539 38.9535 86.71 38.9535C86.4458 38.9535 86.1521 39.051 86.0635 39.2074C86.0255 39.2683 86.002 39.3371 85.9951 39.4086C85.9882 39.4801 85.998 39.5522 86.0237 39.6192C86.0724 39.7668 86.2599 39.8834 86.5831 39.972L87.2886 40.1491C88.0827 40.3454 88.4842 40.7852 88.4842 41.4775C88.4842 42.3409 87.7299 42.8605 86.6613 42.8605C86.2223 42.8657 85.7941 42.7239 85.4451 42.4575C85.2753 42.3297 85.1381 42.1637 85.0444 41.9729C84.9508 41.7821 84.9035 41.5719 84.9064 41.3594H85.8377C85.8864 41.7623 86.22 42.0162 86.7395 42.0162C87.2104 42.0162 87.5528 41.8111 87.5528 41.4671C87.5528 41.2029 87.3373 41.0244 86.9152 40.9284L86.2908 40.7852Z" fill="white"/>
</g>
<defs>
<clipPath id="clip0_1859_15913">
<rect width="122.023" height="45" fill="white"/>
</clipPath>
</defs>
</svg>
